ISO-10303-21;
HEADER;
FILE_DESCRIPTION(('FreeCAD Model'),'2;1');
FILE_NAME('Open CASCADE Shape Model','2026-05-07T17:12:22',(
    'kicad StepUp'),('ksu MCAD'),'Open CASCADE STEP processor 7.8',
  'FreeCAD','Unknown');
FILE_SCHEMA(('AUTOMOTIVE_DESIGN { 1 0 10303 214 1 1 1 1 }'));
ENDSEC;
DATA;
#1 = APPLICATION_PROTOCOL_DEFINITION('international standard',
  'automotive_design',2000,#2);
#2 = APPLICATION_CONTEXT(
  'core data for automotive mechanical design processes');
#3 = SHAPE_DEFINITION_REPRESENTATION(#4,#10);
#4 = PRODUCT_DEFINITION_SHAPE('','',#5);
#5 = PRODUCT_DEFINITION('design','',#6,#9);
#6 = PRODUCT_DEFINITION_FORMATION('','',#7);
#7 = PRODUCT('Fusion','Fusion','',(#8));
#8 = PRODUCT_CONTEXT('',#2,'mechanical');
#9 = PRODUCT_DEFINITION_CONTEXT('part definition',#2,'design');
#10 = ADVANCED_BREP_SHAPE_REPRESENTATION('',(#11,#15),#653);
#11 = AXIS2_PLACEMENT_3D('',#12,#13,#14);
#12 = CARTESIAN_POINT('',(0.,0.,0.));
#13 = DIRECTION('',(0.,0.,1.));
#14 = DIRECTION('',(1.,0.,-0.));
#15 = MANIFOLD_SOLID_BREP('',#16);
#16 = CLOSED_SHELL('',(#17,#52,#78,#94,#126,#151,#169,#228,#244,#255,
    #456,#521,#555,#564,#607,#635,#644));
#17 = ADVANCED_FACE('',(#18),#47,.F.);
#18 = FACE_BOUND('',#19,.F.);
#19 = EDGE_LOOP('',(#20,#31,#40));
#20 = ORIENTED_EDGE('',*,*,#21,.T.);
#21 = EDGE_CURVE('',#22,#24,#26,.T.);
#22 = VERTEX_POINT('',#23);
#23 = CARTESIAN_POINT('',(-1.94,-2.54,0.));
#24 = VERTEX_POINT('',#25);
#25 = CARTESIAN_POINT('',(-2.852652896134,-2.027898284968,0.));
#26 = CIRCLE('',#27,0.6);
#27 = AXIS2_PLACEMENT_3D('',#28,#29,#30);
#28 = CARTESIAN_POINT('',(-2.54,-2.54,0.));
#29 = DIRECTION('',(0.,0.,1.));
#30 = DIRECTION('',(1.,0.,0.));
#31 = ORIENTED_EDGE('',*,*,#32,.T.);
#32 = EDGE_CURVE('',#24,#33,#35,.T.);
#33 = VERTEX_POINT('',#34);
#34 = CARTESIAN_POINT('',(-2.027898284968,-2.852652896134,0.));
#35 = CIRCLE('',#36,3.5);
#36 = AXIS2_PLACEMENT_3D('',#37,#38,#39);
#37 = CARTESIAN_POINT('',(0.,0.,0.));
#38 = DIRECTION('',(0.,0.,1.));
#39 = DIRECTION('',(1.,0.,0.));
#40 = ORIENTED_EDGE('',*,*,#41,.T.);
#41 = EDGE_CURVE('',#33,#22,#42,.T.);
#42 = CIRCLE('',#43,0.6);
#43 = AXIS2_PLACEMENT_3D('',#44,#45,#46);
#44 = CARTESIAN_POINT('',(-2.54,-2.54,0.));
#45 = DIRECTION('',(0.,0.,1.));
#46 = DIRECTION('',(1.,0.,0.));
#47 = PLANE('',#48);
#48 = AXIS2_PLACEMENT_3D('',#49,#50,#51);
#49 = CARTESIAN_POINT('',(0.,0.,0.));
#50 = DIRECTION('',(0.,0.,1.));
#51 = DIRECTION('',(1.,0.,0.));
#52 = ADVANCED_FACE('',(#53),#73,.F.);
#53 = FACE_BOUND('',#54,.F.);
#54 = EDGE_LOOP('',(#55,#64,#71,#72));
#55 = ORIENTED_EDGE('',*,*,#56,.T.);
#56 = EDGE_CURVE('',#33,#57,#59,.T.);
#57 = VERTEX_POINT('',#58);
#58 = CARTESIAN_POINT('',(3.5,-1.E-15,0.));
#59 = CIRCLE('',#60,3.5);
#60 = AXIS2_PLACEMENT_3D('',#61,#62,#63);
#61 = CARTESIAN_POINT('',(0.,0.,0.));
#62 = DIRECTION('',(0.,0.,1.));
#63 = DIRECTION('',(1.,0.,0.));
#64 = ORIENTED_EDGE('',*,*,#65,.T.);
#65 = EDGE_CURVE('',#57,#24,#66,.T.);
#66 = CIRCLE('',#67,3.5);
#67 = AXIS2_PLACEMENT_3D('',#68,#69,#70);
#68 = CARTESIAN_POINT('',(0.,0.,0.));
#69 = DIRECTION('',(0.,0.,1.));
#70 = DIRECTION('',(1.,0.,0.));
#71 = ORIENTED_EDGE('',*,*,#21,.F.);
#72 = ORIENTED_EDGE('',*,*,#41,.F.);
#73 = PLANE('',#74);
#74 = AXIS2_PLACEMENT_3D('',#75,#76,#77);
#75 = CARTESIAN_POINT('',(0.,0.,0.));
#76 = DIRECTION('',(0.,0.,1.));
#77 = DIRECTION('',(1.,0.,0.));
#78 = ADVANCED_FACE('',(#79),#89,.F.);
#79 = FACE_BOUND('',#80,.F.);
#80 = EDGE_LOOP('',(#81,#82));
#81 = ORIENTED_EDGE('',*,*,#32,.F.);
#82 = ORIENTED_EDGE('',*,*,#83,.T.);
#83 = EDGE_CURVE('',#24,#33,#84,.T.);
#84 = CIRCLE('',#85,0.6);
#85 = AXIS2_PLACEMENT_3D('',#86,#87,#88);
#86 = CARTESIAN_POINT('',(-2.54,-2.54,0.));
#87 = DIRECTION('',(0.,0.,1.));
#88 = DIRECTION('',(1.,0.,0.));
#89 = PLANE('',#90);
#90 = AXIS2_PLACEMENT_3D('',#91,#92,#93);
#91 = CARTESIAN_POINT('',(-2.54,-2.54,0.));
#92 = DIRECTION('',(0.,0.,1.));
#93 = DIRECTION('',(1.,0.,0.));
#94 = ADVANCED_FACE('',(#95),#121,.T.);
#95 = FACE_BOUND('',#96,.F.);
#96 = EDGE_LOOP('',(#97,#105,#106,#114));
#97 = ORIENTED_EDGE('',*,*,#98,.F.);
#98 = EDGE_CURVE('',#57,#99,#101,.T.);
#99 = VERTEX_POINT('',#100);
#100 = CARTESIAN_POINT('',(3.5,-1.E-15,5.3));
#101 = LINE('',#102,#103);
#102 = CARTESIAN_POINT('',(3.5,-8.6E-16,0.));
#103 = VECTOR('',#104,1.);
#104 = DIRECTION('',(0.,0.,1.));
#105 = ORIENTED_EDGE('',*,*,#56,.F.);
#106 = ORIENTED_EDGE('',*,*,#107,.F.);
#107 = EDGE_CURVE('',#108,#33,#110,.T.);
#108 = VERTEX_POINT('',#109);
#109 = CARTESIAN_POINT('',(-2.027898284968,-2.852652896134,5.3));
#110 = LINE('',#111,#112);
#111 = CARTESIAN_POINT('',(-2.027898284968,-2.852652896134,0.));
#112 = VECTOR('',#113,1.);
#113 = DIRECTION('',(-0.,-0.,-1.));
#114 = ORIENTED_EDGE('',*,*,#115,.T.);
#115 = EDGE_CURVE('',#108,#99,#116,.T.);
#116 = CIRCLE('',#117,3.5);
#117 = AXIS2_PLACEMENT_3D('',#118,#119,#120);
#118 = CARTESIAN_POINT('',(0.,0.,5.3));
#119 = DIRECTION('',(0.,0.,1.));
#120 = DIRECTION('',(1.,0.,0.));
#121 = CYLINDRICAL_SURFACE('',#122,3.5);
#122 = AXIS2_PLACEMENT_3D('',#123,#124,#125);
#123 = CARTESIAN_POINT('',(0.,0.,0.));
#124 = DIRECTION('',(-0.,-0.,-1.));
#125 = DIRECTION('',(1.,0.,0.));
#126 = ADVANCED_FACE('',(#127),#146,.T.);
#127 = FACE_BOUND('',#128,.F.);
#128 = EDGE_LOOP('',(#129,#130,#131,#140));
#129 = ORIENTED_EDGE('',*,*,#65,.F.);
#130 = ORIENTED_EDGE('',*,*,#98,.T.);
#131 = ORIENTED_EDGE('',*,*,#132,.T.);
#132 = EDGE_CURVE('',#99,#133,#135,.T.);
#133 = VERTEX_POINT('',#134);
#134 = CARTESIAN_POINT('',(-2.852652896134,-2.027898284968,5.3));
#135 = CIRCLE('',#136,3.5);
#136 = AXIS2_PLACEMENT_3D('',#137,#138,#139);
#137 = CARTESIAN_POINT('',(0.,0.,5.3));
#138 = DIRECTION('',(0.,0.,1.));
#139 = DIRECTION('',(1.,0.,0.));
#140 = ORIENTED_EDGE('',*,*,#141,.T.);
#141 = EDGE_CURVE('',#133,#24,#142,.T.);
#142 = LINE('',#143,#144);
#143 = CARTESIAN_POINT('',(-2.852652896134,-2.027898284968,0.));
#144 = VECTOR('',#145,1.);
#145 = DIRECTION('',(-0.,-0.,-1.));
#146 = CYLINDRICAL_SURFACE('',#147,3.5);
#147 = AXIS2_PLACEMENT_3D('',#148,#149,#150);
#148 = CARTESIAN_POINT('',(0.,0.,0.));
#149 = DIRECTION('',(-0.,-0.,-1.));
#150 = DIRECTION('',(1.,0.,0.));
#151 = ADVANCED_FACE('',(#152),#164,.T.);
#152 = FACE_BOUND('',#153,.F.);
#153 = EDGE_LOOP('',(#154,#155,#156,#163));
#154 = ORIENTED_EDGE('',*,*,#83,.F.);
#155 = ORIENTED_EDGE('',*,*,#141,.F.);
#156 = ORIENTED_EDGE('',*,*,#157,.T.);
#157 = EDGE_CURVE('',#133,#108,#158,.T.);
#158 = CIRCLE('',#159,0.6);
#159 = AXIS2_PLACEMENT_3D('',#160,#161,#162);
#160 = CARTESIAN_POINT('',(-2.54,-2.54,5.3));
#161 = DIRECTION('',(0.,0.,1.));
#162 = DIRECTION('',(1.,0.,0.));
#163 = ORIENTED_EDGE('',*,*,#107,.T.);
#164 = CYLINDRICAL_SURFACE('',#165,0.6);
#165 = AXIS2_PLACEMENT_3D('',#166,#167,#168);
#166 = CARTESIAN_POINT('',(-2.54,-2.54,0.));
#167 = DIRECTION('',(-0.,-0.,-1.));
#168 = DIRECTION('',(1.,0.,0.));
#169 = ADVANCED_FACE('',(#170,#190,#201,#212),#223,.T.);
#170 = FACE_BOUND('',#171,.T.);
#171 = EDGE_LOOP('',(#172,#173,#174,#183));
#172 = ORIENTED_EDGE('',*,*,#115,.T.);
#173 = ORIENTED_EDGE('',*,*,#132,.T.);
#174 = ORIENTED_EDGE('',*,*,#175,.F.);
#175 = EDGE_CURVE('',#176,#133,#178,.T.);
#176 = VERTEX_POINT('',#177);
#177 = CARTESIAN_POINT('',(-1.94,-2.54,5.3));
#178 = CIRCLE('',#179,0.6);
#179 = AXIS2_PLACEMENT_3D('',#180,#181,#182);
#180 = CARTESIAN_POINT('',(-2.54,-2.54,5.3));
#181 = DIRECTION('',(0.,0.,1.));
#182 = DIRECTION('',(1.,0.,0.));
#183 = ORIENTED_EDGE('',*,*,#184,.F.);
#184 = EDGE_CURVE('',#108,#176,#185,.T.);
#185 = CIRCLE('',#186,0.6);
#186 = AXIS2_PLACEMENT_3D('',#187,#188,#189);
#187 = CARTESIAN_POINT('',(-2.54,-2.54,5.3));
#188 = DIRECTION('',(0.,0.,1.));
#189 = DIRECTION('',(1.,0.,0.));
#190 = FACE_BOUND('',#191,.T.);
#191 = EDGE_LOOP('',(#192));
#192 = ORIENTED_EDGE('',*,*,#193,.T.);
#193 = EDGE_CURVE('',#194,#194,#196,.T.);
#194 = VERTEX_POINT('',#195);
#195 = CARTESIAN_POINT('',(1.47,0.,5.3));
#196 = CIRCLE('',#197,0.2);
#197 = AXIS2_PLACEMENT_3D('',#198,#199,#200);
#198 = CARTESIAN_POINT('',(1.27,0.,5.3));
#199 = DIRECTION('',(0.,0.,-1.));
#200 = DIRECTION('',(1.,0.,0.));
#201 = FACE_BOUND('',#202,.T.);
#202 = EDGE_LOOP('',(#203));
#203 = ORIENTED_EDGE('',*,*,#204,.F.);
#204 = EDGE_CURVE('',#205,#205,#207,.T.);
#205 = VERTEX_POINT('',#206);
#206 = CARTESIAN_POINT('',(1.687286272329,9.315158847979E-02,5.3));
#207 = ELLIPSE('',#208,0.303825311792,0.2);
#208 = AXIS2_PLACEMENT_3D('',#209,#210,#211);
#209 = CARTESIAN_POINT('',(1.797120627731,-0.1520117508,5.3));
#210 = DIRECTION('',(0.,0.,1.));
#211 = DIRECTION('',(-0.78419631078,0.620512809021,0.));
#212 = FACE_BOUND('',#213,.T.);
#213 = EDGE_LOOP('',(#214));
#214 = ORIENTED_EDGE('',*,*,#215,.T.);
#215 = EDGE_CURVE('',#216,#216,#218,.T.);
#216 = VERTEX_POINT('',#217);
#217 = CARTESIAN_POINT('',(0.2,1.27,5.3));
#218 = CIRCLE('',#219,0.2);
#219 = AXIS2_PLACEMENT_3D('',#220,#221,#222);
#220 = CARTESIAN_POINT('',(0.,1.27,5.3));
#221 = DIRECTION('',(0.,0.,-1.));
#222 = DIRECTION('',(1.,0.,0.));
#223 = PLANE('',#224);
#224 = AXIS2_PLACEMENT_3D('',#225,#226,#227);
#225 = CARTESIAN_POINT('',(0.,0.,5.3));
#226 = DIRECTION('',(0.,0.,1.));
#227 = DIRECTION('',(1.,0.,0.));
#228 = ADVANCED_FACE('',(#229),#239,.T.);
#229 = FACE_BOUND('',#230,.T.);
#230 = EDGE_LOOP('',(#231,#238));
#231 = ORIENTED_EDGE('',*,*,#232,.F.);
#232 = EDGE_CURVE('',#133,#108,#233,.T.);
#233 = CIRCLE('',#234,3.5);
#234 = AXIS2_PLACEMENT_3D('',#235,#236,#237);
#235 = CARTESIAN_POINT('',(0.,0.,5.3));
#236 = DIRECTION('',(0.,0.,1.));
#237 = DIRECTION('',(1.,0.,0.));
#238 = ORIENTED_EDGE('',*,*,#157,.T.);
#239 = PLANE('',#240);
#240 = AXIS2_PLACEMENT_3D('',#241,#242,#243);
#241 = CARTESIAN_POINT('',(-2.54,-2.54,5.3));
#242 = DIRECTION('',(0.,0.,1.));
#243 = DIRECTION('',(1.,0.,0.));
#244 = ADVANCED_FACE('',(#245),#250,.T.);
#245 = FACE_BOUND('',#246,.T.);
#246 = EDGE_LOOP('',(#247,#248,#249));
#247 = ORIENTED_EDGE('',*,*,#175,.T.);
#248 = ORIENTED_EDGE('',*,*,#232,.T.);
#249 = ORIENTED_EDGE('',*,*,#184,.T.);
#250 = PLANE('',#251);
#251 = AXIS2_PLACEMENT_3D('',#252,#253,#254);
#252 = CARTESIAN_POINT('',(0.,0.,5.3));
#253 = DIRECTION('',(0.,0.,1.));
#254 = DIRECTION('',(1.,0.,0.));
#255 = ADVANCED_FACE('',(#256),#451,.F.);
#256 = FACE_BOUND('',#257,.T.);
#257 = EDGE_LOOP('',(#258,#268,#275,#276,#398,#404,#405,#406));
#258 = ORIENTED_EDGE('',*,*,#259,.F.);
#259 = EDGE_CURVE('',#260,#262,#264,.T.);
#260 = VERTEX_POINT('',#261);
#261 = CARTESIAN_POINT('',(1.47,0.,2.04));
#262 = VERTEX_POINT('',#263);
#263 = CARTESIAN_POINT('',(1.47,-5.E-17,4.751944305827));
#264 = LINE('',#265,#266);
#265 = CARTESIAN_POINT('',(1.47,-5.E-17,2.04));
#266 = VECTOR('',#267,1.);
#267 = DIRECTION('',(0.,0.,1.));
#268 = ORIENTED_EDGE('',*,*,#269,.F.);
#269 = EDGE_CURVE('',#260,#260,#270,.T.);
#270 = CIRCLE('',#271,0.2);
#271 = AXIS2_PLACEMENT_3D('',#272,#273,#274);
#272 = CARTESIAN_POINT('',(1.27,0.,2.04));
#273 = DIRECTION('',(0.,0.,1.));
#274 = DIRECTION('',(1.,0.,0.));
#275 = ORIENTED_EDGE('',*,*,#259,.T.);
#276 = ORIENTED_EDGE('',*,*,#277,.F.);
#277 = EDGE_CURVE('',#278,#262,#280,.T.);
#278 = VERTEX_POINT('',#279);
#279 = CARTESIAN_POINT('',(1.47,-5.E-17,5.234445778115));
#280 = B_SPLINE_CURVE_WITH_KNOTS('',6,(#281,#282,#283,#284,#285,#286,
    #287,#288,#289,#290,#291,#292,#293,#294,#295,#296,#297,#298,#299,
    #300,#301,#302,#303,#304,#305,#306,#307,#308,#309,#310,#311,#312,
    #313,#314,#315,#316,#317,#318,#319,#320,#321,#322,#323,#324,#325,
    #326,#327,#328,#329,#330,#331,#332,#333,#334,#335,#336,#337,#338,
    #339,#340,#341,#342,#343,#344,#345,#346,#347,#348,#349,#350,#351,
    #352,#353,#354,#355,#356,#357,#358,#359,#360,#361,#362,#363,#364,
    #365,#366,#367,#368,#369,#370,#371,#372,#373,#374,#375,#376,#377,
    #378,#379,#380,#381,#382,#383,#384,#385,#386,#387,#388,#389,#390,
    #391,#392,#393,#394,#395,#396,#397),.UNSPECIFIED.,.F.,.F.,(7,5,5,5,5
    ,5,5,5,5,5,5,5,5,5,5,5,5,5,5,5,5,5,5,7),(0.,8.755057369297E-02,
    0.109864363541,0.147094377381,0.19729723095,0.224040666441,
    0.325767665745,0.396891827496,0.427045976673,0.453825917578,
    0.502637763221,0.542122540622,0.564661206691,0.591010947478,
    0.610675705003,0.67485177976,0.739077363873,0.759196334216,
    0.785646876291,0.808200492635,0.846742302188,0.895847659999,
    0.921975863858,1.),.UNSPECIFIED.);
#281 = CARTESIAN_POINT('',(1.47,-1.110223024625E-16,5.234445778115));
#282 = CARTESIAN_POINT('',(1.47,1.539076940673E-02,5.233490587525));
#283 = CARTESIAN_POINT('',(1.468578822485,3.145204805212E-02,
    5.229428077816));
#284 = CARTESIAN_POINT('',(1.465503750454,4.79423270889E-02,
    5.222410741595));
#285 = CARTESIAN_POINT('',(1.460600481968,6.456609918243E-02,
    5.212743611208));
#286 = CARTESIAN_POINT('',(1.453764156597,8.099988054655E-02,
    5.200886182059));
#287 = CARTESIAN_POINT('',(1.442715784811,0.100949044545,5.183856170003)
  );
#288 = CARTESIAN_POINT('',(1.440345173038,0.104963866481,5.180287763382)
  );
#289 = CARTESIAN_POINT('',(1.437847988851,0.108935188516,5.176618726212)
  );
#290 = CARTESIAN_POINT('',(1.435225072728,0.112856225328,5.17285828171)
  );
#291 = CARTESIAN_POINT('',(1.432478024529,0.116719991599,5.169015948022)
  );
#292 = CARTESIAN_POINT('',(1.424822645611,0.126858358741,5.158570440995)
  );
#293 = CARTESIAN_POINT('',(1.419694201329,0.133021970191,5.151834521055)
  );
#294 = CARTESIAN_POINT('',(1.414238331421,0.138971369534,5.144944097284)
  );
#295 = CARTESIAN_POINT('',(1.4084752687,0.144671979563,5.137947093411));
#296 = CARTESIAN_POINT('',(1.402429894612,0.15009399678,5.130885875685)
  );
#297 = CARTESIAN_POINT('',(1.387636346322,0.162115667972,5.11423116499)
  );
#298 = CARTESIAN_POINT('',(1.378694879826,0.168455515403,5.104628745842)
  );
#299 = CARTESIAN_POINT('',(1.369379192873,0.174175915408,5.095072331832)
  );
#300 = CARTESIAN_POINT('',(1.359776140357,0.179235561675,5.08561916645)
  );
#301 = CARTESIAN_POINT('',(1.349984958675,0.183612243303,5.076306114578)
  );
#302 = CARTESIAN_POINT('',(1.334858377673,0.189274679156,5.062284024571)
  );
#303 = CARTESIAN_POINT('',(1.329575707605,0.191050302902,5.057454444079)
  );
#304 = CARTESIAN_POINT('',(1.324278943963,0.192635176091,5.052667466978)
  );
#305 = CARTESIAN_POINT('',(1.318979394529,0.194031866486,5.047921247911)
  );
#306 = CARTESIAN_POINT('',(1.313688489581,0.19524384895,5.043213426828)
  );
#307 = CARTESIAN_POINT('',(1.288369001036,0.200199732703,5.02076858669)
  );
#308 = CARTESIAN_POINT('',(1.268653920162,0.201507037735,5.003548554469)
  );
#309 = CARTESIAN_POINT('',(1.249699380201,0.200502477406,4.986549863004)
  );
#310 = CARTESIAN_POINT('',(1.23182742253,0.197546863466,4.969368152212)
  );
#311 = CARTESIAN_POINT('',(1.215264272426,0.193039085416,4.951688346127)
  );
#312 = CARTESIAN_POINT('',(1.189586817223,0.183468962514,4.92025446726)
  );
#313 = CARTESIAN_POINT('',(1.179723970314,0.178979115652,4.90691124494)
  );
#314 = CARTESIAN_POINT('',(1.170612745692,0.17408074226,4.893047713492)
  );
#315 = CARTESIAN_POINT('',(1.162292748783,0.168930359655,4.878560532381)
  );
#316 = CARTESIAN_POINT('',(1.154794553448,0.163701368045,4.863358761346)
  );
#317 = CARTESIAN_POINT('',(1.145318516447,0.156419908238,4.840588787553)
  );
#318 = CARTESIAN_POINT('',(1.142648688952,0.154272510546,4.83366728685)
  );
#319 = CARTESIAN_POINT('',(1.140132947477,0.152161278628,4.826600383041)
  );
#320 = CARTESIAN_POINT('',(1.137773302258,0.150101970485,4.819385474492)
  );
#321 = CARTESIAN_POINT('',(1.135571212921,0.148110487774,4.812020690003)
  );
#322 = CARTESIAN_POINT('',(1.131712642839,0.144508723027,4.79783009556)
  );
#323 = CARTESIAN_POINT('',(1.130022646506,0.142880497859,4.791035710469)
  );
#324 = CARTESIAN_POINT('',(1.12845922475,0.141330468974,4.784124719286)
  );
#325 = CARTESIAN_POINT('',(1.127023571834,0.139870223509,4.77710080304)
  );
#326 = CARTESIAN_POINT('',(1.125716451015,0.138510667065,4.769968338049)
  );
#327 = CARTESIAN_POINT('',(1.122390584383,0.134986119256,4.749543431405)
  );
#328 = CARTESIAN_POINT('',(1.120669346542,0.133076177646,4.735998196885)
  );
#329 = CARTESIAN_POINT('',(1.119385673608,0.13160268139,4.72216772796));
#330 = CARTESIAN_POINT('',(1.118541606551,0.130616193185,4.708138733105)
  );
#331 = CARTESIAN_POINT('',(1.118136365784,0.130143919242,4.694011295282)
  );
#332 = CARTESIAN_POINT('',(1.118202059258,0.130220533032,4.668478921966)
  );
#333 = CARTESIAN_POINT('',(1.118520295429,0.130591566235,4.657085790996)
  );
#334 = CARTESIAN_POINT('',(1.119126828355,0.131298435463,4.645776311893)
  );
#335 = CARTESIAN_POINT('',(1.120022295117,0.132329036018,4.634617545159)
  );
#336 = CARTESIAN_POINT('',(1.121206730295,0.13366111554,4.623680504015)
  );
#337 = CARTESIAN_POINT('',(1.123517458168,0.136177848544,4.606960192924)
  );
#338 = CARTESIAN_POINT('',(1.124450872541,0.137180847323,4.600977017414)
  );
#339 = CARTESIAN_POINT('',(1.12547795623,0.13826679225,4.595098052123));
#340 = CARTESIAN_POINT('',(1.126598659623,0.139429788673,4.589333931701)
  );
#341 = CARTESIAN_POINT('',(1.127812934383,0.140663545644,4.58369452466)
  );
#342 = CARTESIAN_POINT('',(1.13064966893,0.143478657006,4.571752398787)
  );
#343 = CARTESIAN_POINT('',(1.132306410187,0.145083611174,4.565498776343)
  );
#344 = CARTESIAN_POINT('',(1.134090921229,0.146765602814,4.559442469051)
  );
#345 = CARTESIAN_POINT('',(1.136003073058,0.148513875195,4.553596499352)
  );
#346 = CARTESIAN_POINT('',(1.138042643662,0.150317550482,4.547972509099)
  );
#347 = CARTESIAN_POINT('',(1.141826302642,0.153544847476,4.538556907942)
  );
#348 = CARTESIAN_POINT('',(1.143514066786,0.154948823634,4.534662419917)
  );
#349 = CARTESIAN_POINT('',(1.145272474018,0.15637302482,4.530901567267)
  );
#350 = CARTESIAN_POINT('',(1.147101317448,0.157812960298,4.527278244321)
  );
#351 = CARTESIAN_POINT('',(1.149000319718,0.159264181975,4.523795967965)
  );
#352 = CARTESIAN_POINT('',(1.157394369067,0.165480811954,4.509563996321)
  );
#353 = CARTESIAN_POINT('',(1.164562923676,0.170312746146,4.500205636207)
  );
#354 = CARTESIAN_POINT('',(1.172463673444,0.175065335161,4.492492063418)
  );
#355 = CARTESIAN_POINT('',(1.181071859258,0.179592567289,4.486492864448)
  );
#356 = CARTESIAN_POINT('',(1.190349125678,0.18375852877,4.48223603398));
#357 = CARTESIAN_POINT('',(1.210145628151,0.191125835211,4.47717413968)
  );
#358 = CARTESIAN_POINT('',(1.220662834674,0.194325215257,4.476372455413)
  );
#359 = CARTESIAN_POINT('',(1.231743255363,0.196916103575,4.477285702656)
  );
#360 = CARTESIAN_POINT('',(1.243317700783,0.198786604065,4.479855526297)
  );
#361 = CARTESIAN_POINT('',(1.255301433838,0.199837753129,4.483983272448)
  );
#362 = CARTESIAN_POINT('',(1.271447183073,0.200031848179,4.491271133892)
  );
#363 = CARTESIAN_POINT('',(1.275328965717,0.199989503155,4.493149068698)
  );
#364 = CARTESIAN_POINT('',(1.279238184884,0.199855915208,4.495162371051)
  );
#365 = CARTESIAN_POINT('',(1.28317160026,0.199628649315,4.49730653022));
#366 = CARTESIAN_POINT('',(1.287125781282,0.199305435227,4.499576695614)
  );
#367 = CARTESIAN_POINT('',(1.296318235254,0.198330323991,4.505111115396)
  );
#368 = CARTESIAN_POINT('',(1.301568971415,0.1976070517,4.50846339728));
#369 = CARTESIAN_POINT('',(1.306841090739,0.196709480084,4.51201268659)
  );
#370 = CARTESIAN_POINT('',(1.31212563597,0.195633515957,4.515746226503)
  );
#371 = CARTESIAN_POINT('',(1.317412917472,0.194375843458,4.519650339218)
  );
#372 = CARTESIAN_POINT('',(1.327194272668,0.191704440848,4.527172345134)
  );
#373 = CARTESIAN_POINT('',(1.331690436947,0.190341068177,4.530747700081)
  );
#374 = CARTESIAN_POINT('',(1.336174467729,0.188842243125,4.534427382055)
  );
#375 = CARTESIAN_POINT('',(1.340639438478,0.187207107269,4.53820196365)
  );
#376 = CARTESIAN_POINT('',(1.345078034461,0.185435506674,4.5420616988));
#377 = CARTESIAN_POINT('',(1.357009421283,0.180268245415,4.552720732059)
  );
#378 = CARTESIAN_POINT('',(1.364441811744,0.176609512644,4.559668834062)
  );
#379 = CARTESIAN_POINT('',(1.371734390364,0.172556943568,4.566785225587)
  );
#380 = CARTESIAN_POINT('',(1.378844904706,0.16812317716,4.574016874575)
  );
#381 = CARTESIAN_POINT('',(1.38573513607,0.163327220957,4.581317044438)
  );
#382 = CARTESIAN_POINT('',(1.400827560376,0.151652342475,4.597990541489)
  );
#383 = CARTESIAN_POINT('',(1.408856670005,0.144574401159,4.607367273794)
  );
#384 = CARTESIAN_POINT('',(1.416392579239,0.13701389907,4.61670010783));
#385 = CARTESIAN_POINT('',(1.423379437099,0.129040610222,4.625935613717)
  );
#386 = CARTESIAN_POINT('',(1.429775665872,0.12073914012,4.635039086347)
  );
#387 = CARTESIAN_POINT('',(1.438633899989,0.107669287327,4.648748954785)
  );
#388 = CARTESIAN_POINT('',(1.441537944199,0.103062999292,4.653468695399)
  );
#389 = CARTESIAN_POINT('',(1.444268531457,9.840005872801E-02,
    4.658147802784));
#390 = CARTESIAN_POINT('',(1.446825369561,9.369134375893E-02,
    4.662787756335));
#391 = CARTESIAN_POINT('',(1.449208959075,8.894806340996E-02,
    4.667390526478));
#392 = CARTESIAN_POINT('',(1.458024983502,6.994859811185E-02,
    4.685599696562));
#393 = CARTESIAN_POINT('',(1.46308726713,5.552931204013E-02,
    4.698911981619));
#394 = CARTESIAN_POINT('',(1.466692120289,4.114400132125E-02,
    4.712040381983));
#395 = CARTESIAN_POINT('',(1.468950150039,2.698763625267E-02,
    4.725156393044));
#396 = CARTESIAN_POINT('',(1.47,1.322778170369E-02,4.738410158301));
#397 = CARTESIAN_POINT('',(1.47,0.,4.751944305827));
#398 = ORIENTED_EDGE('',*,*,#399,.T.);
#399 = EDGE_CURVE('',#278,#194,#400,.T.);
#400 = LINE('',#401,#402);
#401 = CARTESIAN_POINT('',(1.47,-5.E-17,2.04));
#402 = VECTOR('',#403,1.);
#403 = DIRECTION('',(0.,0.,1.));
#404 = ORIENTED_EDGE('',*,*,#193,.F.);
#405 = ORIENTED_EDGE('',*,*,#399,.F.);
#406 = ORIENTED_EDGE('',*,*,#407,.F.);
#407 = EDGE_CURVE('',#262,#278,#408,.T.);
#408 = B_SPLINE_CURVE_WITH_KNOTS('',6,(#409,#410,#411,#412,#413,#414,
    #415,#416,#417,#418,#419,#420,#421,#422,#423,#424,#425,#426,#427,
    #428,#429,#430,#431,#432,#433,#434,#435,#436,#437,#438,#439,#440,
    #441,#442,#443,#444,#445,#446,#447,#448,#449,#450),.UNSPECIFIED.,.F.
  ,.F.,(7,5,5,5,5,5,5,5,7),(0.,6.327807407951E-02,0.316142326984,
    0.383635366049,0.508252826807,0.605021100455,0.661238424951,
    0.938691813659,1.),.UNSPECIFIED.);
#409 = CARTESIAN_POINT('',(1.47,-2.775557561563E-17,4.751944305827));
#410 = CARTESIAN_POINT('',(1.47,-4.279148509605E-03,4.75632256278));
#411 = CARTESIAN_POINT('',(1.469890136387,-8.504066798921E-03,
    4.760731652928));
#412 = CARTESIAN_POINT('',(1.469675621009,-1.267052194391E-02,
    4.765176848739));
#413 = CARTESIAN_POINT('',(1.46936184417,-1.677448626487E-02,
    4.769663315083));
#414 = CARTESIAN_POINT('',(1.468954374626,-2.081213732645E-02,
    4.77419610923));
#415 = CARTESIAN_POINT('',(1.466479241409,-4.06351873337E-02,
    4.79709849827));
#416 = CARTESIAN_POINT('',(1.463093527477,-5.538593531203E-02,
    4.816249771985));
#417 = CARTESIAN_POINT('',(1.45866628638,-6.879557101982E-02,
    4.836551425676));
#418 = CARTESIAN_POINT('',(1.45361717684,-8.063599128953E-02,
    4.858257133364));
#419 = CARTESIAN_POINT('',(1.448482298707,-9.073380441923E-02,
    4.881604751863));
#420 = CARTESIAN_POINT('',(1.442586075787,-0.101095773035,4.913400339319
    ));
#421 = CARTESIAN_POINT('',(1.441378702862,-0.103140892377,4.92022004967)
  );
#422 = CARTESIAN_POINT('',(1.440217930188,-0.105043582613,4.92715785578)
  );
#423 = CARTESIAN_POINT('',(1.439114953481,-0.106799944675,4.934210148961
    ));
#424 = CARTESIAN_POINT('',(1.438080410276,-0.108406663998,4.941372615706
    ));
#425 = CARTESIAN_POINT('',(1.435359189384,-0.11254627961,4.962058993304)
  );
#426 = CARTESIAN_POINT('',(1.43385940688,-0.114714621681,4.97584989907)
  );
#427 = CARTESIAN_POINT('',(1.432695268454,-0.116337044214,4.989938333191
    ));
#428 = CARTESIAN_POINT('',(1.431918508651,-0.117399165479,5.004232772719
    ));
#429 = CARTESIAN_POINT('',(1.431557104946,-0.117895334556,5.01862730144)
  );
#430 = CARTESIAN_POINT('',(1.431651113566,-0.117766388872,5.044168040417
    ));
#431 = CARTESIAN_POINT('',(1.431942068568,-0.117367172559,5.055305748986
    ));
#432 = CARTESIAN_POINT('',(1.432481788286,-0.116625876832,5.066361702536
    ));
#433 = CARTESIAN_POINT('',(1.433259006748,-0.115544583814,5.077273184525
    ));
#434 = CARTESIAN_POINT('',(1.434253552045,-0.114128045116,5.087973863591
    ));
#435 = CARTESIAN_POINT('',(1.436125482016,-0.111372450547,5.104452859331
    ));
#436 = CARTESIAN_POINT('',(1.436877644197,-0.110249274175,5.110417247503
    ));
#437 = CARTESIAN_POINT('',(1.437688862889,-0.109016802838,5.116279240574
    ));
#438 = CARTESIAN_POINT('',(1.438553520108,-0.107676414528,5.122028310069
    ));
#439 = CARTESIAN_POINT('',(1.439465611039,-0.106229576874,5.127654677329
    ));
#440 = CARTESIAN_POINT('',(1.445122809573,-9.701948424057E-02,
    5.160267385108));
#441 = CARTESIAN_POINT('',(1.45081444387,-8.682813893918E-02,
    5.184100595281));
#442 = CARTESIAN_POINT('',(1.456752584637,-7.427098659587E-02,
    5.203746714359));
#443 = CARTESIAN_POINT('',(1.46210093687,-5.952921462971E-02,
    5.21846704728));
#444 = CARTESIAN_POINT('',(1.466182432042,-4.293124290409E-02,
    5.22797923919));
#445 = CARTESIAN_POINT('',(1.468945301864,-2.0902411885E-02,
    5.233329960373));
#446 = CARTESIAN_POINT('',(1.469356576031,-1.684490212655E-02,
    5.234047942066));
#447 = CARTESIAN_POINT('',(1.469673149347,-1.272107196755E-02,
    5.23451636504));
#448 = CARTESIAN_POINT('',(1.469889391518,-8.535633793069E-03,
    5.234736935443));
#449 = CARTESIAN_POINT('',(1.47,-4.293543400588E-03,5.234712246421));
#450 = CARTESIAN_POINT('',(1.47,-1.387778780781E-16,5.234445778115));
#451 = CYLINDRICAL_SURFACE('',#452,0.2);
#452 = AXIS2_PLACEMENT_3D('',#453,#454,#455);
#453 = CARTESIAN_POINT('',(1.27,0.,2.04));
#454 = DIRECTION('',(-0.,-0.,-1.));
#455 = DIRECTION('',(1.,0.,0.));
#456 = ADVANCED_FACE('',(#457,#512),#516,.F.);
#457 = FACE_BOUND('',#458,.F.);
#458 = EDGE_LOOP('',(#459,#470,#476,#477,#478,#487,#496,#505));
#459 = ORIENTED_EDGE('',*,*,#460,.T.);
#460 = EDGE_CURVE('',#461,#463,#465,.T.);
#461 = VERTEX_POINT('',#462);
#462 = CARTESIAN_POINT('',(0.124102561804,1.426839262156,3.296031840806)
  );
#463 = VERTEX_POINT('',#464);
#464 = CARTESIAN_POINT('',(0.2,1.27,3.641527949007));
#465 = ELLIPSE('',#466,0.483843986366,0.2);
#466 = AXIS2_PLACEMENT_3D('',#467,#468,#469);
#467 = CARTESIAN_POINT('',(0.,1.27,3.296031840806));
#468 = DIRECTION('',(0.714065107632,-0.565019931451,-0.413356382709));
#469 = DIRECTION('',(-0.324152550358,0.256492930162,-0.910569327879));
#470 = ORIENTED_EDGE('',*,*,#471,.T.);
#471 = EDGE_CURVE('',#463,#205,#472,.T.);
#472 = LINE('',#473,#474);
#473 = CARTESIAN_POINT('',(-0.750147386785,2.021825296617,2.582019154618
    ));
#474 = VECTOR('',#475,1.);
#475 = DIRECTION('',(0.590326739819,-0.467109190046,0.658273001747));
#476 = ORIENTED_EDGE('',*,*,#204,.F.);
#477 = ORIENTED_EDGE('',*,*,#471,.F.);
#478 = ORIENTED_EDGE('',*,*,#479,.T.);
#479 = EDGE_CURVE('',#463,#480,#482,.T.);
#480 = VERTEX_POINT('',#481);
#481 = CARTESIAN_POINT('',(-0.124102561804,1.113160737844,3.296031840806
    ));
#482 = ELLIPSE('',#483,0.483843986366,0.2);
#483 = AXIS2_PLACEMENT_3D('',#484,#485,#486);
#484 = CARTESIAN_POINT('',(0.,1.27,3.296031840806));
#485 = DIRECTION('',(0.714065107632,-0.565019931451,-0.413356382709));
#486 = DIRECTION('',(-0.324152550358,0.256492930162,-0.910569327879));
#487 = ORIENTED_EDGE('',*,*,#488,.F.);
#488 = EDGE_CURVE('',#489,#480,#491,.T.);
#489 = VERTEX_POINT('',#490);
#490 = CARTESIAN_POINT('',(0.156839262156,1.145897438196,3.205241086043)
  );
#491 = ELLIPSE('',#492,0.219642803548,0.2);
#492 = AXIS2_PLACEMENT_3D('',#493,#494,#495);
#493 = CARTESIAN_POINT('',(0.,1.27,3.296031840806));
#494 = DIRECTION('',(-0.324152550358,0.256492930162,-0.910569327879));
#495 = DIRECTION('',(0.714065107632,-0.565019931451,-0.413356382709));
#496 = ORIENTED_EDGE('',*,*,#497,.F.);
#497 = EDGE_CURVE('',#498,#489,#500,.T.);
#498 = VERTEX_POINT('',#499);
#499 = CARTESIAN_POINT('',(0.2,1.27,3.224834065868));
#500 = ELLIPSE('',#501,0.219642803548,0.2);
#501 = AXIS2_PLACEMENT_3D('',#502,#503,#504);
#502 = CARTESIAN_POINT('',(0.,1.27,3.296031840806));
#503 = DIRECTION('',(-0.324152550358,0.256492930162,-0.910569327879));
#504 = DIRECTION('',(0.714065107632,-0.565019931451,-0.413356382709));
#505 = ORIENTED_EDGE('',*,*,#506,.F.);
#506 = EDGE_CURVE('',#461,#498,#507,.T.);
#507 = ELLIPSE('',#508,0.219642803548,0.2);
#508 = AXIS2_PLACEMENT_3D('',#509,#510,#511);
#509 = CARTESIAN_POINT('',(0.,1.27,3.296031840806));
#510 = DIRECTION('',(-0.324152550358,0.256492930162,-0.910569327879));
#511 = DIRECTION('',(0.714065107632,-0.565019931451,-0.413356382709));
#512 = FACE_BOUND('',#513,.F.);
#513 = EDGE_LOOP('',(#514,#515));
#514 = ORIENTED_EDGE('',*,*,#277,.F.);
#515 = ORIENTED_EDGE('',*,*,#407,.F.);
#516 = CYLINDRICAL_SURFACE('',#517,0.2);
#517 = AXIS2_PLACEMENT_3D('',#518,#519,#520);
#518 = CARTESIAN_POINT('',(-0.74619179561,1.860440889351,2.463953806654)
  );
#519 = DIRECTION('',(-0.590326739819,0.467109190046,-0.658273001747));
#520 = DIRECTION('',(-1.977795587443E-02,0.806922036331,0.590326739819)
  );
#521 = ADVANCED_FACE('',(#522),#550,.F.);
#522 = FACE_BOUND('',#523,.T.);
#523 = EDGE_LOOP('',(#524,#525,#531,#532,#533,#534,#543));
#524 = ORIENTED_EDGE('',*,*,#460,.T.);
#525 = ORIENTED_EDGE('',*,*,#526,.T.);
#526 = EDGE_CURVE('',#463,#216,#527,.T.);
#527 = LINE('',#528,#529);
#528 = CARTESIAN_POINT('',(0.2,1.27,2.032));
#529 = VECTOR('',#530,1.);
#530 = DIRECTION('',(0.,0.,1.));
#531 = ORIENTED_EDGE('',*,*,#215,.F.);
#532 = ORIENTED_EDGE('',*,*,#526,.F.);
#533 = ORIENTED_EDGE('',*,*,#479,.T.);
#534 = ORIENTED_EDGE('',*,*,#535,.T.);
#535 = EDGE_CURVE('',#480,#536,#538,.T.);
#536 = VERTEX_POINT('',#537);
#537 = CARTESIAN_POINT('',(-4.598554153626E-02,1.46464154225,
    3.367229615743));
#538 = ELLIPSE('',#539,0.219642803548,0.2);
#539 = AXIS2_PLACEMENT_3D('',#540,#541,#542);
#540 = CARTESIAN_POINT('',(0.,1.27,3.296031840806));
#541 = DIRECTION('',(-0.324152550358,0.256492930162,-0.910569327879));
#542 = DIRECTION('',(0.714065107632,-0.565019931451,-0.413356382709));
#543 = ORIENTED_EDGE('',*,*,#544,.T.);
#544 = EDGE_CURVE('',#536,#461,#545,.T.);
#545 = ELLIPSE('',#546,0.219642803548,0.2);
#546 = AXIS2_PLACEMENT_3D('',#547,#548,#549);
#547 = CARTESIAN_POINT('',(0.,1.27,3.296031840806));
#548 = DIRECTION('',(-0.324152550358,0.256492930162,-0.910569327879));
#549 = DIRECTION('',(0.714065107632,-0.565019931451,-0.413356382709));
#550 = CYLINDRICAL_SURFACE('',#551,0.2);
#551 = AXIS2_PLACEMENT_3D('',#552,#553,#554);
#552 = CARTESIAN_POINT('',(0.,1.27,2.032));
#553 = DIRECTION('',(-0.,-0.,-1.));
#554 = DIRECTION('',(1.,0.,0.));
#555 = ADVANCED_FACE('',(#556),#559,.T.);
#556 = FACE_BOUND('',#557,.F.);
#557 = EDGE_LOOP('',(#558));
#558 = ORIENTED_EDGE('',*,*,#269,.F.);
#559 = PLANE('',#560);
#560 = AXIS2_PLACEMENT_3D('',#561,#562,#563);
#561 = CARTESIAN_POINT('',(1.27,0.,2.04));
#562 = DIRECTION('',(0.,0.,1.));
#563 = DIRECTION('',(1.,0.,0.));
#564 = ADVANCED_FACE('',(#565),#602,.F.);
#565 = FACE_BOUND('',#566,.T.);
#566 = EDGE_LOOP('',(#567,#575,#582,#583,#584,#593,#600,#601));
#567 = ORIENTED_EDGE('',*,*,#568,.F.);
#568 = EDGE_CURVE('',#569,#498,#571,.T.);
#569 = VERTEX_POINT('',#570);
#570 = CARTESIAN_POINT('',(0.2,1.27,2.032));
#571 = LINE('',#572,#573);
#572 = CARTESIAN_POINT('',(0.2,1.27,2.032));
#573 = VECTOR('',#574,1.);
#574 = DIRECTION('',(0.,0.,1.));
#575 = ORIENTED_EDGE('',*,*,#576,.F.);
#576 = EDGE_CURVE('',#569,#569,#577,.T.);
#577 = CIRCLE('',#578,0.2);
#578 = AXIS2_PLACEMENT_3D('',#579,#580,#581);
#579 = CARTESIAN_POINT('',(0.,1.27,2.032));
#580 = DIRECTION('',(0.,0.,1.));
#581 = DIRECTION('',(1.,0.,0.));
#582 = ORIENTED_EDGE('',*,*,#568,.T.);
#583 = ORIENTED_EDGE('',*,*,#506,.F.);
#584 = ORIENTED_EDGE('',*,*,#585,.F.);
#585 = EDGE_CURVE('',#586,#461,#588,.T.);
#586 = VERTEX_POINT('',#587);
#587 = CARTESIAN_POINT('',(-0.156839262156,1.394102561804,2.855458347342
    ));
#588 = ELLIPSE('',#589,0.483843986366,0.2);
#589 = AXIS2_PLACEMENT_3D('',#590,#591,#592);
#590 = CARTESIAN_POINT('',(0.,1.27,3.296031840806));
#591 = DIRECTION('',(0.714065107632,-0.565019931451,-0.413356382709));
#592 = DIRECTION('',(-0.324152550358,0.256492930162,-0.910569327879));
#593 = ORIENTED_EDGE('',*,*,#594,.F.);
#594 = EDGE_CURVE('',#480,#586,#595,.T.);
#595 = ELLIPSE('',#596,0.483843986366,0.2);
#596 = AXIS2_PLACEMENT_3D('',#597,#598,#599);
#597 = CARTESIAN_POINT('',(0.,1.27,3.296031840806));
#598 = DIRECTION('',(0.714065107632,-0.565019931451,-0.413356382709));
#599 = DIRECTION('',(-0.324152550358,0.256492930162,-0.910569327879));
#600 = ORIENTED_EDGE('',*,*,#488,.F.);
#601 = ORIENTED_EDGE('',*,*,#497,.F.);
#602 = CYLINDRICAL_SURFACE('',#603,0.2);
#603 = AXIS2_PLACEMENT_3D('',#604,#605,#606);
#604 = CARTESIAN_POINT('',(0.,1.27,2.032));
#605 = DIRECTION('',(-0.,-0.,-1.));
#606 = DIRECTION('',(1.,0.,0.));
#607 = ADVANCED_FACE('',(#608),#630,.F.);
#608 = FACE_BOUND('',#609,.F.);
#609 = EDGE_LOOP('',(#610,#619,#625,#626,#627,#628,#629));
#610 = ORIENTED_EDGE('',*,*,#611,.F.);
#611 = EDGE_CURVE('',#612,#612,#614,.T.);
#612 = VERTEX_POINT('',#613);
#613 = CARTESIAN_POINT('',(-0.750147386785,2.021825296617,2.582019154618
    ));
#614 = CIRCLE('',#615,0.2);
#615 = AXIS2_PLACEMENT_3D('',#616,#617,#618);
#616 = CARTESIAN_POINT('',(-0.74619179561,1.860440889351,2.463953806654)
  );
#617 = DIRECTION('',(-0.590326739819,0.467109190046,-0.658273001747));
#618 = DIRECTION('',(-1.977795587443E-02,0.806922036331,0.590326739819)
  );
#619 = ORIENTED_EDGE('',*,*,#620,.T.);
#620 = EDGE_CURVE('',#612,#536,#621,.T.);
#621 = LINE('',#622,#623);
#622 = CARTESIAN_POINT('',(-0.750147386785,2.021825296617,2.582019154618
    ));
#623 = VECTOR('',#624,1.);
#624 = DIRECTION('',(0.590326739819,-0.467109190046,0.658273001747));
#625 = ORIENTED_EDGE('',*,*,#544,.T.);
#626 = ORIENTED_EDGE('',*,*,#585,.F.);
#627 = ORIENTED_EDGE('',*,*,#594,.F.);
#628 = ORIENTED_EDGE('',*,*,#535,.T.);
#629 = ORIENTED_EDGE('',*,*,#620,.F.);
#630 = CYLINDRICAL_SURFACE('',#631,0.2);
#631 = AXIS2_PLACEMENT_3D('',#632,#633,#634);
#632 = CARTESIAN_POINT('',(-0.74619179561,1.860440889351,2.463953806654)
  );
#633 = DIRECTION('',(-0.590326739819,0.467109190046,-0.658273001747));
#634 = DIRECTION('',(-1.977795587443E-02,0.806922036331,0.590326739819)
  );
#635 = ADVANCED_FACE('',(#636),#639,.T.);
#636 = FACE_BOUND('',#637,.F.);
#637 = EDGE_LOOP('',(#638));
#638 = ORIENTED_EDGE('',*,*,#576,.F.);
#639 = PLANE('',#640);
#640 = AXIS2_PLACEMENT_3D('',#641,#642,#643);
#641 = CARTESIAN_POINT('',(0.,1.27,2.032));
#642 = DIRECTION('',(0.,0.,1.));
#643 = DIRECTION('',(1.,0.,0.));
#644 = ADVANCED_FACE('',(#645),#648,.T.);
#645 = FACE_BOUND('',#646,.T.);
#646 = EDGE_LOOP('',(#647));
#647 = ORIENTED_EDGE('',*,*,#611,.F.);
#648 = PLANE('',#649);
#649 = AXIS2_PLACEMENT_3D('',#650,#651,#652);
#650 = CARTESIAN_POINT('',(-0.74619179561,1.860440889351,2.463953806654)
  );
#651 = DIRECTION('',(0.590326739819,-0.467109190046,0.658273001747));
#652 = DIRECTION('',(1.977795587443E-02,-0.806922036331,-0.590326739819)
  );
#653 = ( GEOMETRIC_REPRESENTATION_CONTEXT(3) 
GLOBAL_UNCERTAINTY_ASSIGNED_CONTEXT((#657)) GLOBAL_UNIT_ASSIGNED_CONTEXT
((#654,#655,#656)) REPRESENTATION_CONTEXT('Context #1',
  '3D Context with UNIT and UNCERTAINTY') );
#654 = ( LENGTH_UNIT() NAMED_UNIT(*) SI_UNIT(.MILLI.,.METRE.) );
#655 = ( NAMED_UNIT(*) PLANE_ANGLE_UNIT() SI_UNIT($,.RADIAN.) );
#656 = ( NAMED_UNIT(*) SI_UNIT($,.STERADIAN.) SOLID_ANGLE_UNIT() );
#657 = UNCERTAINTY_MEASURE_WITH_UNIT(LENGTH_MEASURE(1.E-07),#654,
  'distance_accuracy_value','confusion accuracy');
#658 = PRODUCT_RELATED_PRODUCT_CATEGORY('part',$,(#7));
#659 = MECHANICAL_DESIGN_GEOMETRIC_PRESENTATION_REPRESENTATION('',(#660)
  ,#653);
#660 = STYLED_ITEM('color',(#661),#15);
#661 = PRESENTATION_STYLE_ASSIGNMENT((#662,#668));
#662 = SURFACE_STYLE_USAGE(.BOTH.,#663);
#663 = SURFACE_SIDE_STYLE('',(#664));
#664 = SURFACE_STYLE_FILL_AREA(#665);
#665 = FILL_AREA_STYLE('',(#666));
#666 = FILL_AREA_STYLE_COLOUR('',#667);
#667 = COLOUR_RGB('',0.147999998088,0.144999993226,0.144999993226);
#668 = CURVE_STYLE('',#669,POSITIVE_LENGTH_MEASURE(0.1),#670);
#669 = DRAUGHTING_PRE_DEFINED_CURVE_FONT('continuous');
#670 = COLOUR_RGB('',9.803921802644E-02,9.803921802644E-02,
  9.803921802644E-02);
ENDSEC;
END-ISO-10303-21;
