%TF.GenerationSoftware,KiCad,Pcbnew,9.0.1*%
%TF.CreationDate,2026-03-25T19:35:00+00:00*%
%TF.ProjectId,LED_,4c45445f-2e6b-4696-9361-645f70636258,rev?*%
%TF.SameCoordinates,Original*%
%TF.FileFunction,Copper,L2,Bot*%
%TF.FilePolarity,Positive*%
%FSLAX46Y46*%
G04 Gerber Fmt 4.6, Leading zero omitted, Abs format (unit mm)*
G04 Created by KiCad (PCBNEW 9.0.1) date 2026-03-25 19:35:00*
%MOMM*%
%LPD*%
G01*
G04 APERTURE LIST*
G04 Aperture macros list*
%AMRoundRect*
0 Rectangle with rounded corners*
0 $1 Rounding radius*
0 $2 $3 $4 $5 $6 $7 $8 $9 X,Y pos of 4 corners*
0 Add a 4 corners polygon primitive as box body*
4,1,4,$2,$3,$4,$5,$6,$7,$8,$9,$2,$3,0*
0 Add four circle primitives for the rounded corners*
1,1,$1+$1,$2,$3*
1,1,$1+$1,$4,$5*
1,1,$1+$1,$6,$7*
1,1,$1+$1,$8,$9*
0 Add four rect primitives between the rounded corners*
20,1,$1+$1,$2,$3,$4,$5,0*
20,1,$1+$1,$4,$5,$6,$7,0*
20,1,$1+$1,$6,$7,$8,$9,0*
20,1,$1+$1,$8,$9,$2,$3,0*%
G04 Aperture macros list end*
%ADD10C,0.400000*%
%ADD11C,0.500000*%
%ADD12C,0.300000*%
%TA.AperFunction,ComponentPad*%
%ADD13C,3.000000*%
%TD*%
%TA.AperFunction,ComponentPad*%
%ADD14O,4.000000X2.000000*%
%TD*%
%TA.AperFunction,ComponentPad*%
%ADD15R,4.000000X2.000000*%
%TD*%
%TA.AperFunction,ComponentPad*%
%ADD16RoundRect,0.250000X1.050000X1.050000X-1.050000X1.050000X-1.050000X-1.050000X1.050000X-1.050000X0*%
%TD*%
%TA.AperFunction,ComponentPad*%
%ADD17C,2.600000*%
%TD*%
%TA.AperFunction,ComponentPad*%
%ADD18O,3.000000X3.000000*%
%TD*%
%TA.AperFunction,ComponentPad*%
%ADD19RoundRect,0.250000X-1.050000X-1.050000X1.050000X-1.050000X1.050000X1.050000X-1.050000X1.050000X0*%
%TD*%
%TA.AperFunction,ViaPad*%
%ADD20C,2.200000*%
%TD*%
%TA.AperFunction,ViaPad*%
%ADD21C,2.100000*%
%TD*%
%TA.AperFunction,Conductor*%
%ADD22C,1.000000*%
%TD*%
G04 APERTURE END LIST*
D10*
G36*
X49115215Y-51404877D02*
G01*
X49045413Y-51369976D01*
X49001104Y-51281358D01*
X49001104Y-50994832D01*
X49045413Y-50906214D01*
X49134032Y-50861905D01*
X49223810Y-50861905D01*
X49115215Y-51404877D01*
G37*
G36*
X48982057Y-44995644D02*
G01*
X48922448Y-45114861D01*
X48873108Y-45164199D01*
X48753891Y-45223809D01*
X48562603Y-45223809D01*
X48443385Y-45164200D01*
X48394047Y-45114862D01*
X48334438Y-44995643D01*
X48334438Y-44480952D01*
X48982057Y-44480952D01*
X48982057Y-44995644D01*
G37*
G36*
X50556660Y-52036508D02*
G01*
X47712216Y-52036508D01*
X47712216Y-50947619D01*
X48601104Y-50947619D01*
X48601104Y-51328572D01*
X48604947Y-51367590D01*
X48607696Y-51374227D01*
X48608206Y-51381397D01*
X48622219Y-51418015D01*
X48717457Y-51608491D01*
X48721562Y-51615013D01*
X48722590Y-51618095D01*
X48725917Y-51621931D01*
X48738343Y-51641671D01*
X48757288Y-51658102D01*
X48773719Y-51677047D01*
X48793458Y-51689472D01*
X48797296Y-51692801D01*
X48800377Y-51693828D01*
X48806900Y-51697934D01*
X48997377Y-51793172D01*
X49033995Y-51807184D01*
X49041162Y-51807693D01*
X49047801Y-51810443D01*
X49086819Y-51814286D01*
X49277086Y-51814286D01*
X49277295Y-51814286D01*
X49316313Y-51810443D01*
X49334415Y-51802944D01*
X49353638Y-51799142D01*
X49370113Y-51788158D01*
X49388409Y-51780580D01*
X49402265Y-51766723D01*
X49418568Y-51755855D01*
X49429585Y-51739403D01*
X49443589Y-51725400D01*
X49451087Y-51707297D01*
X49461991Y-51691016D01*
X49473411Y-51653509D01*
X49631732Y-50861905D01*
X49801509Y-50861905D01*
X49890129Y-50906214D01*
X49934438Y-50994832D01*
X49934438Y-51281359D01*
X49860315Y-51429605D01*
X49846302Y-51466223D01*
X49840770Y-51544062D01*
X49865448Y-51618094D01*
X49916577Y-51677047D01*
X49986375Y-51711946D01*
X50064214Y-51717478D01*
X50138246Y-51692800D01*
X50197199Y-51641671D01*
X50218085Y-51608491D01*
X50313324Y-51418014D01*
X50327336Y-51381397D01*
X50327845Y-51374227D01*
X50330595Y-51367590D01*
X50334438Y-51328572D01*
X50334438Y-50947619D01*
X50330595Y-50908601D01*
X50327845Y-50901963D01*
X50327336Y-50894794D01*
X50313324Y-50858177D01*
X50218085Y-50667700D01*
X50213980Y-50661179D01*
X50212953Y-50658097D01*
X50209624Y-50654258D01*
X50197199Y-50634520D01*
X50178255Y-50618090D01*
X50161823Y-50599144D01*
X50142080Y-50586716D01*
X50138246Y-50583391D01*
X50135166Y-50582364D01*
X50128643Y-50578258D01*
X49938165Y-50483019D01*
X49901548Y-50469007D01*
X49894378Y-50468497D01*
X49887741Y-50465748D01*
X49848723Y-50461905D01*
X49086819Y-50461905D01*
X49047801Y-50465748D01*
X49041162Y-50468497D01*
X49033995Y-50469007D01*
X48997377Y-50483019D01*
X48806900Y-50578257D01*
X48800377Y-50582362D01*
X48797296Y-50583390D01*
X48793458Y-50586718D01*
X48773719Y-50599144D01*
X48757288Y-50618088D01*
X48738343Y-50634520D01*
X48725917Y-50654259D01*
X48722590Y-50658096D01*
X48721562Y-50661177D01*
X48717457Y-50667700D01*
X48622219Y-50858176D01*
X48608206Y-50894794D01*
X48607696Y-50901963D01*
X48604947Y-50908601D01*
X48601104Y-50947619D01*
X47712216Y-50947619D01*
X47712216Y-49328571D01*
X48601104Y-49328571D01*
X48601104Y-49614285D01*
X48604947Y-49653303D01*
X48607696Y-49659940D01*
X48608206Y-49667110D01*
X48622218Y-49703727D01*
X48717457Y-49894205D01*
X48738343Y-49927385D01*
X48797296Y-49978515D01*
X48871327Y-50003192D01*
X48949167Y-49997660D01*
X49018965Y-49962761D01*
X49070094Y-49903809D01*
X49094772Y-49829777D01*
X49089240Y-49751938D01*
X49075228Y-49715320D01*
X49001104Y-49567071D01*
X49001104Y-49375784D01*
X49045413Y-49287166D01*
X49134032Y-49242857D01*
X49134844Y-49242857D01*
X49223462Y-49287166D01*
X49267771Y-49375784D01*
X49267771Y-49614285D01*
X49271614Y-49653303D01*
X49274363Y-49659940D01*
X49274873Y-49667110D01*
X49288885Y-49703727D01*
X49384124Y-49894205D01*
X49388230Y-49900728D01*
X49389257Y-49903808D01*
X49392582Y-49907642D01*
X49405010Y-49927385D01*
X49423956Y-49943817D01*
X49440386Y-49962761D01*
X49460124Y-49975186D01*
X49463963Y-49978515D01*
X49467045Y-49979542D01*
X49473566Y-49983647D01*
X49664043Y-50078886D01*
X49700660Y-50092898D01*
X49707829Y-50093407D01*
X49714467Y-50096157D01*
X49753485Y-50100000D01*
X49848723Y-50100000D01*
X49887741Y-50096157D01*
X49894378Y-50093407D01*
X49901548Y-50092898D01*
X49938165Y-50078886D01*
X50128643Y-49983647D01*
X50135165Y-49979541D01*
X50138247Y-49978514D01*
X50142083Y-49975186D01*
X50161823Y-49962761D01*
X50178254Y-49943815D01*
X50197199Y-49927385D01*
X50209624Y-49907645D01*
X50212953Y-49903808D01*
X50213980Y-49900726D01*
X50218086Y-49894204D01*
X50313324Y-49703727D01*
X50327336Y-49667109D01*
X50327845Y-49659941D01*
X50330595Y-49653303D01*
X50334438Y-49614285D01*
X50334438Y-49233333D01*
X50330595Y-49194315D01*
X50327845Y-49187677D01*
X50327336Y-49180508D01*
X50313324Y-49143891D01*
X50218085Y-48953414D01*
X50197199Y-48920234D01*
X50138246Y-48869105D01*
X50064214Y-48844427D01*
X49986375Y-48849959D01*
X49916577Y-48884858D01*
X49865448Y-48943811D01*
X49840770Y-49017843D01*
X49846302Y-49095682D01*
X49860315Y-49132300D01*
X49934438Y-49280546D01*
X49934438Y-49567072D01*
X49890128Y-49655690D01*
X49801509Y-49700000D01*
X49800698Y-49700000D01*
X49712080Y-49655691D01*
X49667771Y-49567071D01*
X49667771Y-49328571D01*
X49663928Y-49289553D01*
X49661178Y-49282915D01*
X49660669Y-49275746D01*
X49646657Y-49239129D01*
X49551418Y-49048652D01*
X49547313Y-49042131D01*
X49546286Y-49039049D01*
X49542957Y-49035210D01*
X49530532Y-49015472D01*
X49511588Y-48999042D01*
X49495156Y-48980096D01*
X49475413Y-48967668D01*
X49471579Y-48964343D01*
X49468499Y-48963316D01*
X49461976Y-48959210D01*
X49271500Y-48863972D01*
X49234882Y-48849959D01*
X49227712Y-48849449D01*
X49221075Y-48846700D01*
X49182057Y-48842857D01*
X49086819Y-48842857D01*
X49047801Y-48846700D01*
X49041162Y-48849449D01*
X49033995Y-48849959D01*
X48997377Y-48863971D01*
X48806900Y-48959209D01*
X48800377Y-48963314D01*
X48797296Y-48964342D01*
X48793458Y-48967670D01*
X48773719Y-48980096D01*
X48757288Y-48999040D01*
X48738343Y-49015472D01*
X48725917Y-49035211D01*
X48722590Y-49039048D01*
X48721562Y-49042129D01*
X48717457Y-49048652D01*
X48622219Y-49239128D01*
X48608206Y-49275746D01*
X48607696Y-49282915D01*
X48604947Y-49289553D01*
X48601104Y-49328571D01*
X47712216Y-49328571D01*
X47712216Y-48051458D01*
X47938281Y-48051458D01*
X47938281Y-48129494D01*
X47968144Y-48201590D01*
X48023324Y-48256770D01*
X48095420Y-48286633D01*
X48134438Y-48290476D01*
X49801509Y-48290476D01*
X49890129Y-48334785D01*
X49955553Y-48465633D01*
X49976439Y-48498813D01*
X50035392Y-48549943D01*
X50109424Y-48574620D01*
X50187263Y-48569088D01*
X50257061Y-48534189D01*
X50308190Y-48475237D01*
X50332868Y-48401205D01*
X50327336Y-48323365D01*
X50313324Y-48286748D01*
X50218085Y-48096271D01*
X50213980Y-48089750D01*
X50212953Y-48086668D01*
X50209624Y-48082829D01*
X50197199Y-48063091D01*
X50178255Y-48046661D01*
X50161823Y-48027715D01*
X50142080Y-48015287D01*
X50138246Y-48011962D01*
X50135166Y-48010935D01*
X50128643Y-48006829D01*
X49938165Y-47911590D01*
X49901548Y-47897578D01*
X49894378Y-47897068D01*
X49887741Y-47894319D01*
X49848723Y-47890476D01*
X48134438Y-47890476D01*
X48095420Y-47894319D01*
X48023324Y-47924182D01*
X47968144Y-47979362D01*
X47938281Y-48051458D01*
X47712216Y-48051458D01*
X47712216Y-46241934D01*
X48604947Y-46241934D01*
X48604947Y-46319970D01*
X48634810Y-46392066D01*
X48689990Y-46447246D01*
X48762086Y-46477109D01*
X48801104Y-46480952D01*
X49801509Y-46480952D01*
X49890129Y-46525261D01*
X49934438Y-46613879D01*
X49934438Y-46805168D01*
X49874829Y-46924385D01*
X49861119Y-46938095D01*
X48801104Y-46938095D01*
X48762086Y-46941938D01*
X48689990Y-46971801D01*
X48634810Y-47026981D01*
X48604947Y-47099077D01*
X48604947Y-47177113D01*
X48634810Y-47249209D01*
X48689990Y-47304389D01*
X48762086Y-47334252D01*
X48801104Y-47338095D01*
X50134438Y-47338095D01*
X50173456Y-47334252D01*
X50245552Y-47304389D01*
X50300732Y-47249209D01*
X50330595Y-47177113D01*
X50330595Y-47099077D01*
X50300732Y-47026981D01*
X50280740Y-47006989D01*
X50313324Y-46941823D01*
X50327336Y-46905206D01*
X50327845Y-46898036D01*
X50330595Y-46891399D01*
X50334438Y-46852381D01*
X50334438Y-46566666D01*
X50330595Y-46527648D01*
X50327845Y-46521010D01*
X50327336Y-46513841D01*
X50313324Y-46477224D01*
X50218085Y-46286747D01*
X50213980Y-46280226D01*
X50212953Y-46277144D01*
X50209624Y-46273305D01*
X50197199Y-46253567D01*
X50178255Y-46237137D01*
X50161823Y-46218191D01*
X50142080Y-46205763D01*
X50138246Y-46202438D01*
X50135166Y-46201411D01*
X50128643Y-46197305D01*
X49938165Y-46102066D01*
X49901548Y-46088054D01*
X49894378Y-46087544D01*
X49887741Y-46084795D01*
X49848723Y-46080952D01*
X48801104Y-46080952D01*
X48762086Y-46084795D01*
X48689990Y-46114658D01*
X48634810Y-46169838D01*
X48604947Y-46241934D01*
X47712216Y-46241934D01*
X47712216Y-44280952D01*
X47934438Y-44280952D01*
X47934438Y-45042857D01*
X47938281Y-45081875D01*
X47941030Y-45088512D01*
X47941540Y-45095682D01*
X47955553Y-45132300D01*
X48050791Y-45322776D01*
X48061360Y-45339567D01*
X48063382Y-45344447D01*
X48067889Y-45349939D01*
X48071677Y-45355956D01*
X48075668Y-45359418D01*
X48088255Y-45374754D01*
X48183493Y-45469992D01*
X48198829Y-45482578D01*
X48202291Y-45486570D01*
X48208307Y-45490357D01*
X48213800Y-45494865D01*
X48218679Y-45496886D01*
X48235471Y-45507456D01*
X48425948Y-45602695D01*
X48462565Y-45616707D01*
X48469734Y-45617216D01*
X48476372Y-45619966D01*
X48515390Y-45623809D01*
X48801104Y-45623809D01*
X48840122Y-45619966D01*
X48846759Y-45617216D01*
X48853929Y-45616707D01*
X48890547Y-45602694D01*
X49081023Y-45507456D01*
X49097816Y-45496884D01*
X49102693Y-45494865D01*
X49108184Y-45490358D01*
X49114203Y-45486570D01*
X49117664Y-45482578D01*
X49133001Y-45469993D01*
X49228240Y-45374755D01*
X49240829Y-45359415D01*
X49244818Y-45355956D01*
X49248602Y-45349944D01*
X49253113Y-45344448D01*
X49255135Y-45339565D01*
X49265704Y-45322776D01*
X49360943Y-45132299D01*
X49374955Y-45095682D01*
X49375464Y-45088512D01*
X49378214Y-45081875D01*
X49382057Y-45042857D01*
X49382057Y-44480952D01*
X50134438Y-44480952D01*
X50173456Y-44477109D01*
X50245552Y-44447246D01*
X50300732Y-44392066D01*
X50330595Y-44319970D01*
X50330595Y-44241934D01*
X50300732Y-44169838D01*
X50245552Y-44114658D01*
X50173456Y-44084795D01*
X50134438Y-44080952D01*
X48134438Y-44080952D01*
X48095420Y-44084795D01*
X48023324Y-44114658D01*
X47968144Y-44169838D01*
X47938281Y-44241934D01*
X47934438Y-44280952D01*
X47712216Y-44280952D01*
X47712216Y-43858730D01*
X50556660Y-43858730D01*
X50556660Y-52036508D01*
G37*
D11*
G36*
X49943008Y-74696826D02*
G01*
X46081896Y-74696826D01*
X46081896Y-72278631D01*
X46389415Y-72278631D01*
X46396330Y-72375931D01*
X46439953Y-72463177D01*
X46513644Y-72527089D01*
X46558395Y-72547070D01*
X48596882Y-73226566D01*
X46558395Y-73906062D01*
X46513644Y-73926043D01*
X46439953Y-73989955D01*
X46396330Y-74077201D01*
X46389415Y-74174501D01*
X46420262Y-74267041D01*
X46484174Y-74340732D01*
X46571420Y-74384355D01*
X46668720Y-74391270D01*
X46716509Y-74380404D01*
X49466509Y-73463737D01*
X49511260Y-73443756D01*
X49524753Y-73432053D01*
X49540730Y-73424065D01*
X49561269Y-73400383D01*
X49584951Y-73379844D01*
X49592939Y-73363867D01*
X49604642Y-73350374D01*
X49614554Y-73320637D01*
X49628574Y-73292598D01*
X49629840Y-73274779D01*
X49635489Y-73257834D01*
X49633266Y-73226566D01*
X49635489Y-73195298D01*
X49629840Y-73178352D01*
X49628574Y-73160534D01*
X49614554Y-73132494D01*
X49604642Y-73102758D01*
X49592939Y-73089264D01*
X49584951Y-73073288D01*
X49561269Y-73052748D01*
X49540730Y-73029067D01*
X49524753Y-73021078D01*
X49511260Y-73009376D01*
X49466509Y-72989395D01*
X46716509Y-72072728D01*
X46668720Y-72061862D01*
X46571420Y-72068777D01*
X46484174Y-72112400D01*
X46420262Y-72186091D01*
X46389415Y-72278631D01*
X46081896Y-72278631D01*
X46081896Y-70083708D01*
X46387452Y-70083708D01*
X46387452Y-71393232D01*
X46392256Y-71442005D01*
X46429585Y-71532125D01*
X46498559Y-71601099D01*
X46588679Y-71638428D01*
X46686225Y-71638428D01*
X46776345Y-71601099D01*
X46845319Y-71532125D01*
X46882648Y-71442005D01*
X46887452Y-71393232D01*
X46887452Y-70309954D01*
X47454006Y-70253299D01*
X47443949Y-70279582D01*
X47443312Y-70288541D01*
X47439875Y-70296840D01*
X47435071Y-70345613D01*
X47435071Y-71000375D01*
X47439875Y-71049148D01*
X47443312Y-71057446D01*
X47443949Y-71066406D01*
X47461464Y-71112178D01*
X47592416Y-71374083D01*
X47605628Y-71395072D01*
X47608156Y-71401173D01*
X47613794Y-71408043D01*
X47618525Y-71415558D01*
X47623509Y-71419881D01*
X47639247Y-71439057D01*
X47770200Y-71570010D01*
X47789372Y-71585743D01*
X47793697Y-71590730D01*
X47801216Y-71595463D01*
X47808085Y-71601100D01*
X47814183Y-71603626D01*
X47835172Y-71616838D01*
X48097076Y-71747791D01*
X48142848Y-71765307D01*
X48151808Y-71765943D01*
X48160107Y-71769381D01*
X48208880Y-71774185D01*
X48863642Y-71774185D01*
X48912415Y-71769381D01*
X48920713Y-71765943D01*
X48929673Y-71765307D01*
X48975446Y-71747792D01*
X49237351Y-71616839D01*
X49258341Y-71603625D01*
X49264438Y-71601100D01*
X49271304Y-71595464D01*
X49278826Y-71590730D01*
X49283152Y-71585741D01*
X49302323Y-71570009D01*
X49433276Y-71439057D01*
X49449010Y-71419884D01*
X49453998Y-71415559D01*
X49458730Y-71408040D01*
X49464367Y-71401173D01*
X49466893Y-71395073D01*
X49480107Y-71374083D01*
X49611059Y-71112178D01*
X49628574Y-71066406D01*
X49629210Y-71057446D01*
X49632648Y-71049148D01*
X49637452Y-71000375D01*
X49637452Y-70345613D01*
X49632648Y-70296840D01*
X49629210Y-70288541D01*
X49628574Y-70279582D01*
X49611059Y-70233810D01*
X49480107Y-69971905D01*
X49466893Y-69950914D01*
X49464367Y-69944815D01*
X49458730Y-69937947D01*
X49453998Y-69930429D01*
X49449010Y-69926103D01*
X49433276Y-69906931D01*
X49302323Y-69775979D01*
X49264438Y-69744888D01*
X49174318Y-69707559D01*
X49076774Y-69707560D01*
X48986654Y-69744889D01*
X48917679Y-69813865D01*
X48880350Y-69903985D01*
X48880351Y-70001529D01*
X48917680Y-70091649D01*
X48948771Y-70129533D01*
X49051036Y-70231798D01*
X49137452Y-70404629D01*
X49137452Y-70941358D01*
X49051036Y-71114189D01*
X48977458Y-71187767D01*
X48804624Y-71274185D01*
X48267896Y-71274185D01*
X48095065Y-71187769D01*
X48021486Y-71114190D01*
X47935071Y-70941358D01*
X47935071Y-70404629D01*
X48021486Y-70231797D01*
X48123752Y-70129533D01*
X48154843Y-70091649D01*
X48159661Y-70080017D01*
X48167631Y-70070276D01*
X48178185Y-70035295D01*
X48192172Y-70001529D01*
X48192172Y-69988939D01*
X48195808Y-69976889D01*
X48192172Y-69940534D01*
X48192173Y-69903985D01*
X48187354Y-69892352D01*
X48186102Y-69879827D01*
X48168828Y-69847626D01*
X48154844Y-69813865D01*
X48145942Y-69804963D01*
X48139991Y-69793869D01*
X48111707Y-69770727D01*
X48085869Y-69744889D01*
X48074239Y-69740071D01*
X48064496Y-69732100D01*
X48029510Y-69721544D01*
X47995749Y-69707560D01*
X47983159Y-69707559D01*
X47971109Y-69703924D01*
X47922100Y-69703997D01*
X46612576Y-69834949D01*
X46594802Y-69838512D01*
X46588679Y-69838512D01*
X46582936Y-69840890D01*
X46564523Y-69844582D01*
X46532321Y-69861856D01*
X46498559Y-69875841D01*
X46489657Y-69884742D01*
X46478565Y-69890693D01*
X46455425Y-69918974D01*
X46429585Y-69944815D01*
X46424767Y-69956444D01*
X46416796Y-69966188D01*
X46406240Y-70001173D01*
X46392256Y-70034935D01*
X46390415Y-70053625D01*
X46388620Y-70059575D01*
X46389229Y-70065665D01*
X46387452Y-70083708D01*
X46081896Y-70083708D01*
X46081896Y-69398368D01*
X49943008Y-69398368D01*
X49943008Y-74696826D01*
G37*
G36*
X50700333Y-43689767D02*
G01*
X45709941Y-43689767D01*
X45709941Y-42383893D01*
X45959941Y-42383893D01*
X45959941Y-42481439D01*
X45997270Y-42571559D01*
X46066244Y-42640533D01*
X46156364Y-42677862D01*
X46205137Y-42682666D01*
X46717042Y-42682666D01*
X46717042Y-43194571D01*
X46721846Y-43243344D01*
X46759175Y-43333464D01*
X46828149Y-43402438D01*
X46918269Y-43439767D01*
X47015815Y-43439767D01*
X47105935Y-43402438D01*
X47174909Y-43333464D01*
X47212238Y-43243344D01*
X47217042Y-43194571D01*
X47217042Y-42682666D01*
X47728947Y-42682666D01*
X47777720Y-42677862D01*
X47867840Y-42640533D01*
X47936814Y-42571559D01*
X47974143Y-42481439D01*
X47974143Y-42383893D01*
X48436131Y-42383893D01*
X48436131Y-42481439D01*
X48473460Y-42571559D01*
X48542434Y-42640533D01*
X48632554Y-42677862D01*
X48681327Y-42682666D01*
X50205137Y-42682666D01*
X50253910Y-42677862D01*
X50344030Y-42640533D01*
X50413004Y-42571559D01*
X50450333Y-42481439D01*
X50450333Y-42383893D01*
X50413004Y-42293773D01*
X50344030Y-42224799D01*
X50253910Y-42187470D01*
X50205137Y-42182666D01*
X48681327Y-42182666D01*
X48632554Y-42187470D01*
X48542434Y-42224799D01*
X48473460Y-42293773D01*
X48436131Y-42383893D01*
X47974143Y-42383893D01*
X47936814Y-42293773D01*
X47867840Y-42224799D01*
X47777720Y-42187470D01*
X47728947Y-42182666D01*
X47217042Y-42182666D01*
X47217042Y-41670761D01*
X47212238Y-41621988D01*
X47174909Y-41531868D01*
X47105935Y-41462894D01*
X47015815Y-41425565D01*
X46918269Y-41425565D01*
X46828149Y-41462894D01*
X46759175Y-41531868D01*
X46721846Y-41621988D01*
X46717042Y-41670761D01*
X46717042Y-42182666D01*
X46205137Y-42182666D01*
X46156364Y-42187470D01*
X46066244Y-42224799D01*
X45997270Y-42293773D01*
X45959941Y-42383893D01*
X45709941Y-42383893D01*
X45709941Y-41175565D01*
X50700333Y-41175565D01*
X50700333Y-43689767D01*
G37*
D12*
G36*
X28384542Y-49741526D02*
G01*
X28514713Y-49806612D01*
X28563623Y-49855521D01*
X28620234Y-49968743D01*
X28620234Y-50064590D01*
X28563623Y-50177812D01*
X28514713Y-50226721D01*
X28384542Y-50291807D01*
X28085103Y-50366667D01*
X27705365Y-50366667D01*
X27405925Y-50291807D01*
X27275753Y-50226721D01*
X27226844Y-50177812D01*
X27170234Y-50064590D01*
X27170234Y-49968743D01*
X27226844Y-49855521D01*
X27275753Y-49806612D01*
X27405925Y-49741526D01*
X27705365Y-49666667D01*
X28085103Y-49666667D01*
X28384542Y-49741526D01*
G37*
G36*
X28384542Y-48074859D02*
G01*
X28514713Y-48139945D01*
X28563623Y-48188854D01*
X28620234Y-48302076D01*
X28620234Y-48397923D01*
X28563623Y-48511145D01*
X28514713Y-48560054D01*
X28384542Y-48625140D01*
X28085103Y-48700000D01*
X27705365Y-48700000D01*
X27405925Y-48625140D01*
X27275753Y-48560054D01*
X27226844Y-48511145D01*
X27170234Y-48397923D01*
X27170234Y-48302076D01*
X27226844Y-48188854D01*
X27275753Y-48139945D01*
X27405925Y-48074859D01*
X27705365Y-48000000D01*
X28085103Y-48000000D01*
X28384542Y-48074859D01*
G37*
G36*
X29114678Y-50861111D02*
G01*
X26675790Y-50861111D01*
X26675790Y-49933334D01*
X26870234Y-49933334D01*
X26870234Y-50100000D01*
X26873116Y-50129264D01*
X26875178Y-50134242D01*
X26875560Y-50139618D01*
X26886070Y-50167082D01*
X26969403Y-50333749D01*
X26977331Y-50346343D01*
X26978847Y-50350003D01*
X26982228Y-50354123D01*
X26985068Y-50358634D01*
X26988059Y-50361228D01*
X26997502Y-50372734D01*
X27080835Y-50456066D01*
X27092336Y-50465505D01*
X27094933Y-50468499D01*
X27099446Y-50471340D01*
X27103566Y-50474721D01*
X27107224Y-50476236D01*
X27119818Y-50484164D01*
X27286485Y-50567498D01*
X27288625Y-50568317D01*
X27289496Y-50568962D01*
X27301751Y-50573340D01*
X27313948Y-50578008D01*
X27315031Y-50578085D01*
X27317187Y-50578855D01*
X27650521Y-50662188D01*
X27655592Y-50662937D01*
X27657637Y-50663785D01*
X27668659Y-50664870D01*
X27679610Y-50666490D01*
X27681797Y-50666164D01*
X27686901Y-50666667D01*
X28103567Y-50666667D01*
X28108670Y-50666164D01*
X28110858Y-50666490D01*
X28121808Y-50664870D01*
X28132831Y-50663785D01*
X28134875Y-50662937D01*
X28139947Y-50662188D01*
X28473281Y-50578855D01*
X28475439Y-50578083D01*
X28476520Y-50578007D01*
X28488693Y-50573349D01*
X28500973Y-50568962D01*
X28501843Y-50568317D01*
X28503984Y-50567498D01*
X28670650Y-50484164D01*
X28683245Y-50476235D01*
X28686902Y-50474721D01*
X28691018Y-50471342D01*
X28695536Y-50468499D01*
X28698134Y-50465502D01*
X28709632Y-50456067D01*
X28792966Y-50372734D01*
X28802408Y-50361228D01*
X28805400Y-50358634D01*
X28808239Y-50354123D01*
X28811621Y-50350003D01*
X28813136Y-50346343D01*
X28821065Y-50333749D01*
X28904398Y-50167082D01*
X28914908Y-50139618D01*
X28915289Y-50134242D01*
X28917352Y-50129264D01*
X28920234Y-50100000D01*
X28920234Y-49933334D01*
X28917352Y-49904070D01*
X28915289Y-49899091D01*
X28914908Y-49893716D01*
X28904398Y-49866252D01*
X28821065Y-49699585D01*
X28813136Y-49686990D01*
X28811621Y-49683331D01*
X28808239Y-49679210D01*
X28805400Y-49674700D01*
X28802408Y-49672105D01*
X28792966Y-49660600D01*
X28709632Y-49577267D01*
X28698134Y-49567831D01*
X28695536Y-49564835D01*
X28691018Y-49561991D01*
X28686902Y-49558613D01*
X28683245Y-49557098D01*
X28670650Y-49549170D01*
X28503984Y-49465836D01*
X28501843Y-49465016D01*
X28500973Y-49464372D01*
X28488693Y-49459984D01*
X28476520Y-49455327D01*
X28475439Y-49455250D01*
X28473281Y-49454479D01*
X28139947Y-49371146D01*
X28134875Y-49370396D01*
X28132831Y-49369549D01*
X28121808Y-49368463D01*
X28110858Y-49366844D01*
X28108670Y-49367169D01*
X28103567Y-49366667D01*
X27686901Y-49366667D01*
X27681797Y-49367169D01*
X27679610Y-49366844D01*
X27668659Y-49368463D01*
X27657637Y-49369549D01*
X27655592Y-49370396D01*
X27650521Y-49371146D01*
X27317187Y-49454479D01*
X27315031Y-49455248D01*
X27313948Y-49455326D01*
X27301751Y-49459993D01*
X27289496Y-49464372D01*
X27288625Y-49465016D01*
X27286485Y-49465836D01*
X27119818Y-49549170D01*
X27107224Y-49557097D01*
X27103566Y-49558613D01*
X27099446Y-49561993D01*
X27094933Y-49564835D01*
X27092336Y-49567828D01*
X27080835Y-49577268D01*
X26997502Y-49660600D01*
X26988059Y-49672105D01*
X26985068Y-49674700D01*
X26982228Y-49679210D01*
X26978847Y-49683331D01*
X26977331Y-49686990D01*
X26969403Y-49699585D01*
X26886070Y-49866252D01*
X26875560Y-49893716D01*
X26875178Y-49899091D01*
X26873116Y-49904070D01*
X26870234Y-49933334D01*
X26675790Y-49933334D01*
X26675790Y-48266667D01*
X26870234Y-48266667D01*
X26870234Y-48433333D01*
X26873116Y-48462597D01*
X26875178Y-48467575D01*
X26875560Y-48472951D01*
X26886070Y-48500415D01*
X26969403Y-48667082D01*
X26977331Y-48679676D01*
X26978847Y-48683336D01*
X26982228Y-48687456D01*
X26985068Y-48691967D01*
X26988059Y-48694561D01*
X26997502Y-48706067D01*
X27080835Y-48789399D01*
X27092336Y-48798838D01*
X27094933Y-48801832D01*
X27099446Y-48804673D01*
X27103566Y-48808054D01*
X27107224Y-48809569D01*
X27119818Y-48817497D01*
X27286485Y-48900831D01*
X27288625Y-48901650D01*
X27289496Y-48902295D01*
X27301751Y-48906673D01*
X27313948Y-48911341D01*
X27315031Y-48911418D01*
X27317187Y-48912188D01*
X27650521Y-48995521D01*
X27655592Y-48996270D01*
X27657637Y-48997118D01*
X27668659Y-48998203D01*
X27679610Y-48999823D01*
X27681797Y-48999497D01*
X27686901Y-49000000D01*
X28103567Y-49000000D01*
X28108670Y-48999497D01*
X28110858Y-48999823D01*
X28121808Y-48998203D01*
X28132831Y-48997118D01*
X28134875Y-48996270D01*
X28139947Y-48995521D01*
X28473281Y-48912188D01*
X28475439Y-48911416D01*
X28476520Y-48911340D01*
X28488693Y-48906682D01*
X28500973Y-48902295D01*
X28501843Y-48901650D01*
X28503984Y-48900831D01*
X28670650Y-48817497D01*
X28683245Y-48809568D01*
X28686902Y-48808054D01*
X28691018Y-48804675D01*
X28695536Y-48801832D01*
X28698134Y-48798835D01*
X28709632Y-48789400D01*
X28792966Y-48706067D01*
X28802408Y-48694561D01*
X28805400Y-48691967D01*
X28808239Y-48687456D01*
X28811621Y-48683336D01*
X28813136Y-48679676D01*
X28821065Y-48667082D01*
X28904398Y-48500415D01*
X28914908Y-48472951D01*
X28915289Y-48467575D01*
X28917352Y-48462597D01*
X28920234Y-48433333D01*
X28920234Y-48266667D01*
X28917352Y-48237403D01*
X28915289Y-48232424D01*
X28914908Y-48227049D01*
X28904398Y-48199585D01*
X28821065Y-48032918D01*
X28813136Y-48020323D01*
X28811621Y-48016664D01*
X28808239Y-48012543D01*
X28805400Y-48008033D01*
X28802408Y-48005438D01*
X28792966Y-47993933D01*
X28709632Y-47910600D01*
X28698134Y-47901164D01*
X28695536Y-47898168D01*
X28691018Y-47895324D01*
X28686902Y-47891946D01*
X28683245Y-47890431D01*
X28670650Y-47882503D01*
X28503984Y-47799169D01*
X28501843Y-47798349D01*
X28500973Y-47797705D01*
X28488693Y-47793317D01*
X28476520Y-47788660D01*
X28475439Y-47788583D01*
X28473281Y-47787812D01*
X28139947Y-47704479D01*
X28134875Y-47703729D01*
X28132831Y-47702882D01*
X28121808Y-47701796D01*
X28110858Y-47700177D01*
X28108670Y-47700502D01*
X28103567Y-47700000D01*
X27686901Y-47700000D01*
X27681797Y-47700502D01*
X27679610Y-47700177D01*
X27668659Y-47701796D01*
X27657637Y-47702882D01*
X27655592Y-47703729D01*
X27650521Y-47704479D01*
X27317187Y-47787812D01*
X27315031Y-47788581D01*
X27313948Y-47788659D01*
X27301751Y-47793326D01*
X27289496Y-47797705D01*
X27288625Y-47798349D01*
X27286485Y-47799169D01*
X27119818Y-47882503D01*
X27107224Y-47890430D01*
X27103566Y-47891946D01*
X27099446Y-47895326D01*
X27094933Y-47898168D01*
X27092336Y-47901161D01*
X27080835Y-47910601D01*
X26997502Y-47993933D01*
X26988059Y-48005438D01*
X26985068Y-48008033D01*
X26982228Y-48012543D01*
X26978847Y-48016664D01*
X26977331Y-48020323D01*
X26969403Y-48032918D01*
X26886070Y-48199585D01*
X26875560Y-48227049D01*
X26875178Y-48232424D01*
X26873116Y-48237403D01*
X26870234Y-48266667D01*
X26675790Y-48266667D01*
X26675790Y-46683176D01*
X26870234Y-46683176D01*
X26873116Y-46697744D01*
X26873116Y-46712597D01*
X26878740Y-46726174D01*
X26881592Y-46740590D01*
X26889830Y-46752947D01*
X26895514Y-46766669D01*
X26905903Y-46777058D01*
X26914057Y-46789289D01*
X26926399Y-46797554D01*
X26936898Y-46808053D01*
X26950474Y-46813676D01*
X26962687Y-46821855D01*
X26977248Y-46824767D01*
X26990970Y-46830451D01*
X27019924Y-46833302D01*
X27020077Y-46833333D01*
X27020129Y-46833322D01*
X27020234Y-46833333D01*
X28620234Y-46833333D01*
X28620234Y-47183333D01*
X28623116Y-47212597D01*
X28645514Y-47266669D01*
X28686898Y-47308053D01*
X28740970Y-47330451D01*
X28799498Y-47330451D01*
X28853570Y-47308053D01*
X28894954Y-47266669D01*
X28917352Y-47212597D01*
X28920234Y-47183333D01*
X28920234Y-46183333D01*
X28917352Y-46154069D01*
X28894954Y-46099997D01*
X28853570Y-46058613D01*
X28799498Y-46036215D01*
X28740970Y-46036215D01*
X28686898Y-46058613D01*
X28645514Y-46099997D01*
X28623116Y-46154069D01*
X28620234Y-46183333D01*
X28620234Y-46533333D01*
X27465700Y-46533333D01*
X27542967Y-46456066D01*
X27552410Y-46444559D01*
X27555400Y-46441967D01*
X27558236Y-46437461D01*
X27561622Y-46433336D01*
X27563139Y-46429672D01*
X27571065Y-46417082D01*
X27654398Y-46250415D01*
X27664908Y-46222951D01*
X27669056Y-46164571D01*
X27650548Y-46109049D01*
X27612201Y-46064834D01*
X27559852Y-46038659D01*
X27501472Y-46034511D01*
X27445950Y-46053019D01*
X27401735Y-46091366D01*
X27386070Y-46116251D01*
X27313622Y-46261145D01*
X27174671Y-46400096D01*
X26937029Y-46558526D01*
X26936948Y-46558592D01*
X26936898Y-46558613D01*
X26936786Y-46558724D01*
X26914278Y-46577156D01*
X26906012Y-46589498D01*
X26895514Y-46599997D01*
X26889890Y-46613573D01*
X26881712Y-46625786D01*
X26878799Y-46640347D01*
X26873116Y-46654069D01*
X26873116Y-46668766D01*
X26870234Y-46683176D01*
X26675790Y-46683176D01*
X26675790Y-45840067D01*
X29114678Y-45840067D01*
X29114678Y-50861111D01*
G37*
D11*
G36*
X50640058Y-77824434D02*
G01*
X45649667Y-77824434D01*
X45649667Y-76518560D01*
X45899667Y-76518560D01*
X45899667Y-76616106D01*
X45936996Y-76706226D01*
X46005970Y-76775200D01*
X46096090Y-76812529D01*
X46144863Y-76817333D01*
X47668672Y-76817333D01*
X47717445Y-76812529D01*
X47807565Y-76775200D01*
X47876539Y-76706226D01*
X47913868Y-76616106D01*
X47913868Y-76518560D01*
X48375857Y-76518560D01*
X48375857Y-76616106D01*
X48413186Y-76706226D01*
X48482160Y-76775200D01*
X48572280Y-76812529D01*
X48621053Y-76817333D01*
X49132957Y-76817333D01*
X49132957Y-77329238D01*
X49137761Y-77378011D01*
X49175090Y-77468131D01*
X49244064Y-77537105D01*
X49334184Y-77574434D01*
X49431730Y-77574434D01*
X49521850Y-77537105D01*
X49590824Y-77468131D01*
X49628153Y-77378011D01*
X49632957Y-77329238D01*
X49632957Y-76817333D01*
X50144862Y-76817333D01*
X50193635Y-76812529D01*
X50283755Y-76775200D01*
X50352729Y-76706226D01*
X50390058Y-76616106D01*
X50390058Y-76518560D01*
X50352729Y-76428440D01*
X50283755Y-76359466D01*
X50193635Y-76322137D01*
X50144862Y-76317333D01*
X49632957Y-76317333D01*
X49632957Y-75805428D01*
X49628153Y-75756655D01*
X49590824Y-75666535D01*
X49521850Y-75597561D01*
X49431730Y-75560232D01*
X49334184Y-75560232D01*
X49244064Y-75597561D01*
X49175090Y-75666535D01*
X49137761Y-75756655D01*
X49132957Y-75805428D01*
X49132957Y-76317333D01*
X48621053Y-76317333D01*
X48572280Y-76322137D01*
X48482160Y-76359466D01*
X48413186Y-76428440D01*
X48375857Y-76518560D01*
X47913868Y-76518560D01*
X47876539Y-76428440D01*
X47807565Y-76359466D01*
X47717445Y-76322137D01*
X47668672Y-76317333D01*
X46144863Y-76317333D01*
X46096090Y-76322137D01*
X46005970Y-76359466D01*
X45936996Y-76428440D01*
X45899667Y-76518560D01*
X45649667Y-76518560D01*
X45649667Y-75310232D01*
X50640058Y-75310232D01*
X50640058Y-77824434D01*
G37*
D12*
G36*
X28434542Y-61766526D02*
G01*
X28564713Y-61831612D01*
X28613623Y-61880521D01*
X28670234Y-61993743D01*
X28670234Y-62089590D01*
X28613623Y-62202812D01*
X28564713Y-62251721D01*
X28434542Y-62316807D01*
X28135103Y-62391667D01*
X27755365Y-62391667D01*
X27455925Y-62316807D01*
X27325753Y-62251721D01*
X27276844Y-62202812D01*
X27220234Y-62089590D01*
X27220234Y-61993743D01*
X27276844Y-61880521D01*
X27325753Y-61831612D01*
X27455925Y-61766526D01*
X27755365Y-61691667D01*
X28135103Y-61691667D01*
X28434542Y-61766526D01*
G37*
G36*
X28434542Y-60099859D02*
G01*
X28564713Y-60164945D01*
X28613623Y-60213854D01*
X28670234Y-60327076D01*
X28670234Y-60422923D01*
X28613623Y-60536145D01*
X28564713Y-60585054D01*
X28434542Y-60650140D01*
X28135103Y-60725000D01*
X27755365Y-60725000D01*
X27455925Y-60650140D01*
X27325753Y-60585054D01*
X27276844Y-60536145D01*
X27220234Y-60422923D01*
X27220234Y-60327076D01*
X27276844Y-60213854D01*
X27325753Y-60164945D01*
X27455925Y-60099859D01*
X27755365Y-60025000D01*
X28135103Y-60025000D01*
X28434542Y-60099859D01*
G37*
G36*
X29164678Y-64635889D02*
G01*
X26725790Y-64635889D01*
X26725790Y-63262403D01*
X26923116Y-63262403D01*
X26923116Y-63320931D01*
X26945514Y-63375003D01*
X26986898Y-63416387D01*
X27040970Y-63438785D01*
X27070234Y-63441667D01*
X27708102Y-63441667D01*
X26964168Y-64185601D01*
X26945513Y-64208332D01*
X26923116Y-64262404D01*
X26923116Y-64320930D01*
X26945513Y-64375002D01*
X26986899Y-64416388D01*
X27040971Y-64438785D01*
X27099497Y-64438785D01*
X27153569Y-64416388D01*
X27176300Y-64397733D01*
X27834309Y-63739723D01*
X28730234Y-64411667D01*
X28755374Y-64426920D01*
X28812071Y-64441445D01*
X28870008Y-64433168D01*
X28920370Y-64403349D01*
X28955487Y-64356527D01*
X28970012Y-64299830D01*
X28961735Y-64241893D01*
X28931916Y-64191531D01*
X28910234Y-64171667D01*
X28048595Y-63525437D01*
X28132366Y-63441667D01*
X28820234Y-63441667D01*
X28849498Y-63438785D01*
X28903570Y-63416387D01*
X28944954Y-63375003D01*
X28967352Y-63320931D01*
X28967352Y-63262403D01*
X28944954Y-63208331D01*
X28903570Y-63166947D01*
X28849498Y-63144549D01*
X28820234Y-63141667D01*
X27070234Y-63141667D01*
X27040970Y-63144549D01*
X26986898Y-63166947D01*
X26945514Y-63208331D01*
X26923116Y-63262403D01*
X26725790Y-63262403D01*
X26725790Y-61958334D01*
X26920234Y-61958334D01*
X26920234Y-62125000D01*
X26923116Y-62154264D01*
X26925178Y-62159242D01*
X26925560Y-62164618D01*
X26936070Y-62192082D01*
X27019403Y-62358749D01*
X27027331Y-62371343D01*
X27028847Y-62375003D01*
X27032228Y-62379123D01*
X27035068Y-62383634D01*
X27038059Y-62386228D01*
X27047502Y-62397734D01*
X27130835Y-62481066D01*
X27142336Y-62490505D01*
X27144933Y-62493499D01*
X27149446Y-62496340D01*
X27153566Y-62499721D01*
X27157224Y-62501236D01*
X27169818Y-62509164D01*
X27336485Y-62592498D01*
X27338625Y-62593317D01*
X27339496Y-62593962D01*
X27351751Y-62598340D01*
X27363948Y-62603008D01*
X27365031Y-62603085D01*
X27367187Y-62603855D01*
X27700521Y-62687188D01*
X27705592Y-62687937D01*
X27707637Y-62688785D01*
X27718659Y-62689870D01*
X27729610Y-62691490D01*
X27731797Y-62691164D01*
X27736901Y-62691667D01*
X28153567Y-62691667D01*
X28158670Y-62691164D01*
X28160858Y-62691490D01*
X28171808Y-62689870D01*
X28182831Y-62688785D01*
X28184875Y-62687937D01*
X28189947Y-62687188D01*
X28523281Y-62603855D01*
X28525439Y-62603083D01*
X28526520Y-62603007D01*
X28538693Y-62598349D01*
X28550973Y-62593962D01*
X28551843Y-62593317D01*
X28553984Y-62592498D01*
X28720650Y-62509164D01*
X28733245Y-62501235D01*
X28736902Y-62499721D01*
X28741018Y-62496342D01*
X28745536Y-62493499D01*
X28748134Y-62490502D01*
X28759632Y-62481067D01*
X28842966Y-62397734D01*
X28852408Y-62386228D01*
X28855400Y-62383634D01*
X28858239Y-62379123D01*
X28861621Y-62375003D01*
X28863136Y-62371343D01*
X28871065Y-62358749D01*
X28954398Y-62192082D01*
X28964908Y-62164618D01*
X28965289Y-62159242D01*
X28967352Y-62154264D01*
X28970234Y-62125000D01*
X28970234Y-61958334D01*
X28967352Y-61929070D01*
X28965289Y-61924091D01*
X28964908Y-61918716D01*
X28954398Y-61891252D01*
X28871065Y-61724585D01*
X28863136Y-61711990D01*
X28861621Y-61708331D01*
X28858239Y-61704210D01*
X28855400Y-61699700D01*
X28852408Y-61697105D01*
X28842966Y-61685600D01*
X28759632Y-61602267D01*
X28748134Y-61592831D01*
X28745536Y-61589835D01*
X28741018Y-61586991D01*
X28736902Y-61583613D01*
X28733245Y-61582098D01*
X28720650Y-61574170D01*
X28553984Y-61490836D01*
X28551843Y-61490016D01*
X28550973Y-61489372D01*
X28538693Y-61484984D01*
X28526520Y-61480327D01*
X28525439Y-61480250D01*
X28523281Y-61479479D01*
X28189947Y-61396146D01*
X28184875Y-61395396D01*
X28182831Y-61394549D01*
X28171808Y-61393463D01*
X28160858Y-61391844D01*
X28158670Y-61392169D01*
X28153567Y-61391667D01*
X27736901Y-61391667D01*
X27731797Y-61392169D01*
X27729610Y-61391844D01*
X27718659Y-61393463D01*
X27707637Y-61394549D01*
X27705592Y-61395396D01*
X27700521Y-61396146D01*
X27367187Y-61479479D01*
X27365031Y-61480248D01*
X27363948Y-61480326D01*
X27351751Y-61484993D01*
X27339496Y-61489372D01*
X27338625Y-61490016D01*
X27336485Y-61490836D01*
X27169818Y-61574170D01*
X27157224Y-61582097D01*
X27153566Y-61583613D01*
X27149446Y-61586993D01*
X27144933Y-61589835D01*
X27142336Y-61592828D01*
X27130835Y-61602268D01*
X27047502Y-61685600D01*
X27038059Y-61697105D01*
X27035068Y-61699700D01*
X27032228Y-61704210D01*
X27028847Y-61708331D01*
X27027331Y-61711990D01*
X27019403Y-61724585D01*
X26936070Y-61891252D01*
X26925560Y-61918716D01*
X26925178Y-61924091D01*
X26923116Y-61929070D01*
X26920234Y-61958334D01*
X26725790Y-61958334D01*
X26725790Y-60291667D01*
X26920234Y-60291667D01*
X26920234Y-60458333D01*
X26923116Y-60487597D01*
X26925178Y-60492575D01*
X26925560Y-60497951D01*
X26936070Y-60525415D01*
X27019403Y-60692082D01*
X27027331Y-60704676D01*
X27028847Y-60708336D01*
X27032228Y-60712456D01*
X27035068Y-60716967D01*
X27038059Y-60719561D01*
X27047502Y-60731067D01*
X27130835Y-60814399D01*
X27142336Y-60823838D01*
X27144933Y-60826832D01*
X27149446Y-60829673D01*
X27153566Y-60833054D01*
X27157224Y-60834569D01*
X27169818Y-60842497D01*
X27336485Y-60925831D01*
X27338625Y-60926650D01*
X27339496Y-60927295D01*
X27351751Y-60931673D01*
X27363948Y-60936341D01*
X27365031Y-60936418D01*
X27367187Y-60937188D01*
X27700521Y-61020521D01*
X27705592Y-61021270D01*
X27707637Y-61022118D01*
X27718659Y-61023203D01*
X27729610Y-61024823D01*
X27731797Y-61024497D01*
X27736901Y-61025000D01*
X28153567Y-61025000D01*
X28158670Y-61024497D01*
X28160858Y-61024823D01*
X28171808Y-61023203D01*
X28182831Y-61022118D01*
X28184875Y-61021270D01*
X28189947Y-61020521D01*
X28523281Y-60937188D01*
X28525439Y-60936416D01*
X28526520Y-60936340D01*
X28538693Y-60931682D01*
X28550973Y-60927295D01*
X28551843Y-60926650D01*
X28553984Y-60925831D01*
X28720650Y-60842497D01*
X28733245Y-60834568D01*
X28736902Y-60833054D01*
X28741018Y-60829675D01*
X28745536Y-60826832D01*
X28748134Y-60823835D01*
X28759632Y-60814400D01*
X28842966Y-60731067D01*
X28852408Y-60719561D01*
X28855400Y-60716967D01*
X28858239Y-60712456D01*
X28861621Y-60708336D01*
X28863136Y-60704676D01*
X28871065Y-60692082D01*
X28954398Y-60525415D01*
X28964908Y-60497951D01*
X28965289Y-60492575D01*
X28967352Y-60487597D01*
X28970234Y-60458333D01*
X28970234Y-60291667D01*
X28967352Y-60262403D01*
X28965289Y-60257424D01*
X28964908Y-60252049D01*
X28954398Y-60224585D01*
X28871065Y-60057918D01*
X28863136Y-60045323D01*
X28861621Y-60041664D01*
X28858239Y-60037543D01*
X28855400Y-60033033D01*
X28852408Y-60030438D01*
X28842966Y-60018933D01*
X28759632Y-59935600D01*
X28748134Y-59926164D01*
X28745536Y-59923168D01*
X28741018Y-59920324D01*
X28736902Y-59916946D01*
X28733245Y-59915431D01*
X28720650Y-59907503D01*
X28553984Y-59824169D01*
X28551843Y-59823349D01*
X28550973Y-59822705D01*
X28538693Y-59818317D01*
X28526520Y-59813660D01*
X28525439Y-59813583D01*
X28523281Y-59812812D01*
X28189947Y-59729479D01*
X28184875Y-59728729D01*
X28182831Y-59727882D01*
X28171808Y-59726796D01*
X28160858Y-59725177D01*
X28158670Y-59725502D01*
X28153567Y-59725000D01*
X27736901Y-59725000D01*
X27731797Y-59725502D01*
X27729610Y-59725177D01*
X27718659Y-59726796D01*
X27707637Y-59727882D01*
X27705592Y-59728729D01*
X27700521Y-59729479D01*
X27367187Y-59812812D01*
X27365031Y-59813581D01*
X27363948Y-59813659D01*
X27351751Y-59818326D01*
X27339496Y-59822705D01*
X27338625Y-59823349D01*
X27336485Y-59824169D01*
X27169818Y-59907503D01*
X27157224Y-59915430D01*
X27153566Y-59916946D01*
X27149446Y-59920326D01*
X27144933Y-59923168D01*
X27142336Y-59926161D01*
X27130835Y-59935601D01*
X27047502Y-60018933D01*
X27038059Y-60030438D01*
X27035068Y-60033033D01*
X27032228Y-60037543D01*
X27028847Y-60041664D01*
X27027331Y-60045323D01*
X27019403Y-60057918D01*
X26936070Y-60224585D01*
X26925560Y-60252049D01*
X26925178Y-60257424D01*
X26923116Y-60262403D01*
X26920234Y-60291667D01*
X26725790Y-60291667D01*
X26725790Y-58708176D01*
X26920234Y-58708176D01*
X26923116Y-58722744D01*
X26923116Y-58737597D01*
X26928740Y-58751174D01*
X26931592Y-58765590D01*
X26939830Y-58777947D01*
X26945514Y-58791669D01*
X26955903Y-58802058D01*
X26964057Y-58814289D01*
X26976399Y-58822554D01*
X26986898Y-58833053D01*
X27000474Y-58838676D01*
X27012687Y-58846855D01*
X27027248Y-58849767D01*
X27040970Y-58855451D01*
X27069924Y-58858302D01*
X27070077Y-58858333D01*
X27070129Y-58858322D01*
X27070234Y-58858333D01*
X28670234Y-58858333D01*
X28670234Y-59208333D01*
X28673116Y-59237597D01*
X28695514Y-59291669D01*
X28736898Y-59333053D01*
X28790970Y-59355451D01*
X28849498Y-59355451D01*
X28903570Y-59333053D01*
X28944954Y-59291669D01*
X28967352Y-59237597D01*
X28970234Y-59208333D01*
X28970234Y-58208333D01*
X28967352Y-58179069D01*
X28944954Y-58124997D01*
X28903570Y-58083613D01*
X28849498Y-58061215D01*
X28790970Y-58061215D01*
X28736898Y-58083613D01*
X28695514Y-58124997D01*
X28673116Y-58179069D01*
X28670234Y-58208333D01*
X28670234Y-58558333D01*
X27515700Y-58558333D01*
X27592967Y-58481066D01*
X27602410Y-58469559D01*
X27605400Y-58466967D01*
X27608236Y-58462461D01*
X27611622Y-58458336D01*
X27613139Y-58454672D01*
X27621065Y-58442082D01*
X27704398Y-58275415D01*
X27714908Y-58247951D01*
X27719056Y-58189571D01*
X27700548Y-58134049D01*
X27662201Y-58089834D01*
X27609852Y-58063659D01*
X27551472Y-58059511D01*
X27495950Y-58078019D01*
X27451735Y-58116366D01*
X27436070Y-58141251D01*
X27363622Y-58286145D01*
X27224671Y-58425096D01*
X26987029Y-58583526D01*
X26986948Y-58583592D01*
X26986898Y-58583613D01*
X26986786Y-58583724D01*
X26964278Y-58602156D01*
X26956012Y-58614498D01*
X26945514Y-58624997D01*
X26939890Y-58638573D01*
X26931712Y-58650786D01*
X26928799Y-58665347D01*
X26923116Y-58679069D01*
X26923116Y-58693766D01*
X26920234Y-58708176D01*
X26725790Y-58708176D01*
X26725790Y-57865067D01*
X29164678Y-57865067D01*
X29164678Y-64635889D01*
G37*
D13*
%TO.P,P1,1,Anode*%
%TO.N,Net-(P1-Anode)*%
X40000000Y-54900000D03*
%TO.P,P1,2,GND*%
%TO.N,GND*%
X45100000Y-60000000D03*
%TO.P,P1,3,Cathode*%
%TO.N,Net-(P1-Cathode)*%
X40000000Y-65100000D03*
%TD*%
D14*
%TO.P,Q1,3,S*%
%TO.N,GND*%
X30695000Y-75840000D03*
%TO.P,Q1,2,D*%
%TO.N,Net-(P1-Cathode)*%
X30695000Y-73300000D03*
D15*
%TO.P,Q1,1,G*%
%TO.N,Net-(Q1-G)*%
X30695000Y-70760000D03*
%TD*%
D16*
%TO.P,V2,1*%
%TO.N,Net-(R_series1-Pad2)*%
X42530000Y-73800000D03*
D17*
%TO.P,V2,2*%
%TO.N,GND*%
X37450000Y-73800000D03*
%TD*%
D18*
%TO.P,R_gate1,2*%
%TO.N,Net-(Q1-G)*%
X30650000Y-53480000D03*
%TO.P,R_gate1,1*%
%TO.N,Net-(R_gate1-Pad1)*%
X30650000Y-43320000D03*
%TD*%
D13*
%TO.P,R_series1,1*%
%TO.N,Net-(P1-Anode)*%
X49500000Y-54820000D03*
D18*
%TO.P,R_series1,2*%
%TO.N,Net-(R_series1-Pad2)*%
X49500000Y-64980000D03*
%TD*%
D13*
%TO.P,V1,2*%
%TO.N,GND*%
X42380000Y-46250000D03*
D19*
%TO.P,V1,1*%
%TO.N,Net-(R_gate1-Pad1)*%
X37300000Y-46250000D03*
%TD*%
D18*
%TO.P,R_pulldown1,1*%
%TO.N,Net-(Q1-G)*%
X30700000Y-56100000D03*
%TO.P,R_pulldown1,2*%
%TO.N,GND*%
X30700000Y-66260000D03*
%TD*%
D20*
%TO.N,Net-(P1-Cathode)*%
X34500000Y-67250000D03*
D21*
%TO.N,GND*%
X46350000Y-66500000D03*
%TO.N,Net-(P1-Anode)*%
X46050000Y-53150000D03*
%TD*%
D22*
%TO.N,Net-(P1-Anode)*%
X44300000Y-54900000D02*
X40000000Y-54900000D01*
X46050000Y-53150000D02*
X44300000Y-54900000D01*
%TO.N,Net-(P1-Cathode)*%
X35050000Y-65100000D02*
X40000000Y-65100000D01*
X34500000Y-65650000D02*
X35050000Y-65100000D01*
X34500000Y-67250000D02*
X34500000Y-65650000D01*
%TO.N,GND*%
X45100000Y-60000000D02*
X45100000Y-65250000D01*
X45100000Y-65250000D02*
X46350000Y-66500000D01*
%TD*%
%TA.AperFunction,Conductor*%
%TO.N,GND*%
G36*
X52243039Y-40919685D02*
G01*
X52288794Y-40972489D01*
X52300000Y-41024000D01*
X52300000Y-78976000D01*
X52280315Y-79043039D01*
X52227511Y-79088794D01*
X52176000Y-79100000D01*
X26624000Y-79100000D01*
X26556961Y-79080315D01*
X26511206Y-79027511D01*
X26500000Y-78976000D01*
X26500000Y-77584238D01*
X45889863Y-77584238D01*
X50399862Y-77584238D01*
X50399862Y-75550428D01*
X45889863Y-75550428D01*
X45889863Y-77584238D01*
X26500000Y-77584238D01*
X26500000Y-76340000D01*
X28280267Y-76340000D01*
X28304897Y-76415802D01*
X28412085Y-76626171D01*
X28550866Y-76817186D01*
X28717813Y-76984133D01*
X28908828Y-77122914D01*
X29119197Y-77230102D01*
X29343752Y-77303065D01*
X29343751Y-77303065D01*
X29576948Y-77340000D01*
X30195000Y-77340000D01*
X31195000Y-77340000D01*
X31813052Y-77340000D01*
X32046247Y-77303065D01*
X32270802Y-77230102D01*
X32481171Y-77122914D01*
X32672186Y-76984133D01*
X32839133Y-76817186D01*
X32977914Y-76626171D01*
X33085102Y-76415802D01*
X33109733Y-76340000D01*
X31195000Y-76340000D01*
X31195000Y-77340000D01*
X30195000Y-77340000D01*
X30195000Y-76340000D01*
X28280267Y-76340000D01*
X26500000Y-76340000D01*
X26500000Y-69712135D01*
X28194500Y-69712135D01*
X28194500Y-71807870D01*
X28194501Y-71807876D01*
X28200908Y-71867483D01*
X28251202Y-72002328D01*
X28251206Y-72002335D01*
X28337452Y-72117544D01*
X28337455Y-72117547D01*
X28452664Y-72203793D01*
X28460454Y-72208047D01*
X28458646Y-72211357D01*
X28500351Y-72242449D01*
X28524897Y-72307865D01*
X28510180Y-72376167D01*
X28501549Y-72389840D01*
X28411659Y-72513563D01*
X28304433Y-72724003D01*
X28231446Y-72948631D01*
X28194500Y-73181902D01*
X28194500Y-73418097D01*
X28231446Y-73651368D01*
X28304433Y-73875996D01*
X28325821Y-73917971D01*
X28411657Y-74086433D01*
X28550483Y-74277510D01*
X28717490Y-74444517D01*
X28752553Y-74469992D01*
X28795217Y-74525319D01*
X28801196Y-74594933D01*
X28768591Y-74656728D01*
X28752554Y-74670624D01*
X28717819Y-74695861D01*
X28717813Y-74695866D01*
X28550866Y-74862813D01*
X28412085Y-75053828D01*
X28304897Y-75264197D01*
X28280267Y-75339999D01*
X28280267Y-75340000D01*
X30461026Y-75340000D01*
X30357292Y-75399890D01*
X30254890Y-75502292D01*
X30182482Y-75627708D01*
X30145000Y-75767591D01*
X30145000Y-75912409D01*
X30182482Y-76052292D01*
X30254890Y-76177708D01*
X30357292Y-76280110D01*
X30482708Y-76352518D01*
X30622591Y-76390000D01*
X30767409Y-76390000D01*
X30907292Y-76352518D01*
X31032708Y-76280110D01*
X31135110Y-76177708D01*
X31207518Y-76052292D01*
X31245000Y-75912409D01*
X31245000Y-75767591D01*
X31207518Y-75627708D01*
X31135110Y-75502292D01*
X31032708Y-75399890D01*
X30992210Y-75376509D01*
X36580594Y-75376509D01*
X36652168Y-75417833D01*
X36652183Y-75417840D01*
X36870163Y-75508129D01*
X36870161Y-75508129D01*
X37098085Y-75569200D01*
X37332014Y-75599999D01*
X37332029Y-75600000D01*
X37567971Y-75600000D01*
X37567985Y-75599999D01*
X37801914Y-75569200D01*
X38029837Y-75508129D01*
X38247819Y-75417839D01*
X38247828Y-75417834D01*
X38319404Y-75376509D01*
X37450000Y-74507106D01*
X36580594Y-75376509D01*
X30992210Y-75376509D01*
X30928974Y-75340000D01*
X33109733Y-75340000D01*
X33109732Y-75339999D01*
X33085102Y-75264197D01*
X32977914Y-75053828D01*
X32839133Y-74862813D01*
X32672183Y-74695863D01*
X32637446Y-74670625D01*
X32594781Y-74615295D01*
X32588803Y-74545681D01*
X32621410Y-74483887D01*
X32637439Y-74469997D01*
X32672510Y-74444517D01*
X32839517Y-74277510D01*
X32978343Y-74086433D01*
X33085568Y-73875992D01*
X33148595Y-73682014D01*
X35650000Y-73682014D01*
X35650000Y-73917985D01*
X35680799Y-74151914D01*
X35741870Y-74379837D01*
X35832159Y-74597816D01*
X35832164Y-74597826D01*
X35873489Y-74669403D01*
X36742894Y-73800000D01*
X36678875Y-73735981D01*
X36800000Y-73735981D01*
X36800000Y-73864019D01*
X36824979Y-73989598D01*
X36873978Y-74107890D01*
X36945112Y-74214351D01*
X37035649Y-74304888D01*
X37142110Y-74376022D01*
X37260402Y-74425021D01*
X37385981Y-74450000D01*
X37514019Y-74450000D01*
X37639598Y-74425021D01*
X37757890Y-74376022D01*
X37864351Y-74304888D01*
X37954888Y-74214351D01*
X38026022Y-74107890D01*
X38075021Y-73989598D01*
X38100000Y-73864019D01*
X38100000Y-73799999D01*
X38157106Y-73799999D01*
X38157106Y-73800000D01*
X39026509Y-74669404D01*
X39067834Y-74597828D01*
X39067839Y-74597819D01*
X39158129Y-74379837D01*
X39219200Y-74151914D01*
X39249999Y-73917985D01*
X39250000Y-73917971D01*
X39250000Y-73682028D01*
X39249999Y-73682014D01*
X39219200Y-73448085D01*
X39158129Y-73220162D01*
X39067840Y-73002183D01*
X39067833Y-73002168D01*
X39026509Y-72930594D01*
X38157106Y-73799999D01*
X38100000Y-73799999D01*
X38100000Y-73735981D01*
X38075021Y-73610402D01*
X38026022Y-73492110D01*
X37954888Y-73385649D01*
X37864351Y-73295112D01*
X37757890Y-73223978D01*
X37639598Y-73174979D01*
X37514019Y-73150000D01*
X37385981Y-73150000D01*
X37260402Y-73174979D01*
X37142110Y-73223978D01*
X37035649Y-73295112D01*
X36945112Y-73385649D01*
X36873978Y-73492110D01*
X36824979Y-73610402D01*
X36800000Y-73735981D01*
X36678875Y-73735981D01*
X35873489Y-72930595D01*
X35832166Y-73002170D01*
X35832163Y-73002176D01*
X35741869Y-73220165D01*
X35680799Y-73448085D01*
X35650000Y-73682014D01*
X33148595Y-73682014D01*
X33158553Y-73651368D01*
X33190750Y-73448085D01*
X33195500Y-73418097D01*
X33195500Y-73181902D01*
X33158553Y-72948631D01*
X33085566Y-72724003D01*
X32978342Y-72513566D01*
X32918113Y-72430668D01*
X32888449Y-72389839D01*
X32864970Y-72324035D01*
X32880795Y-72255981D01*
X32910243Y-72223489D01*
X36580595Y-72223489D01*
X37450000Y-73092894D01*
X37450001Y-73092894D01*
X37842911Y-72699983D01*
X40729500Y-72699983D01*
X40729500Y-74900001D01*
X40729501Y-74900018D01*
X40740000Y-75002796D01*
X40740001Y-75002799D01*
X40756911Y-75053828D01*
X40795186Y-75169334D01*
X40887288Y-75318656D01*
X41011344Y-75442712D01*
X41160666Y-75534814D01*
X41327203Y-75589999D01*
X41429991Y-75600500D01*
X43630008Y-75600499D01*
X43732797Y-75589999D01*
X43899334Y-75534814D01*
X44048656Y-75442712D01*
X44172712Y-75318656D01*
X44264814Y-75169334D01*
X44319999Y-75002797D01*
X44330500Y-74900009D01*
X44330500Y-74401116D01*
X46378770Y-74401116D01*
X49645336Y-74401116D01*
X49645336Y-69694074D01*
X46378770Y-69694074D01*
X46378770Y-74401116D01*
X44330500Y-74401116D01*
X44330499Y-72699992D01*
X44319999Y-72597203D01*
X44264814Y-72430666D01*
X44172712Y-72281344D01*
X44048656Y-72157288D01*
X43899334Y-72065186D01*
X43732797Y-72010001D01*
X43732795Y-72010000D01*
X43630010Y-71999500D01*
X41429998Y-71999500D01*
X41429981Y-71999501D01*
X41327203Y-72010000D01*
X41327200Y-72010001D01*
X41160668Y-72065185D01*
X41160663Y-72065187D01*
X41011342Y-72157289D01*
X40887289Y-72281342D01*
X40795187Y-72430663D01*
X40795186Y-72430666D01*
X40740001Y-72597203D01*
X40740001Y-72597204D01*
X40740000Y-72597204D01*
X40729500Y-72699983D01*
X37842911Y-72699983D01*
X37933741Y-72609153D01*
X38319404Y-72223489D01*
X38247826Y-72182164D01*
X38247816Y-72182159D01*
X38029836Y-72091870D01*
X38029838Y-72091870D01*
X37801914Y-72030799D01*
X37567985Y-72000000D01*
X37332014Y-72000000D01*
X37098085Y-72030799D01*
X36870165Y-72091869D01*
X36652176Y-72182163D01*
X36652170Y-72182166D01*
X36580595Y-72223489D01*
X32910243Y-72223489D01*
X32917501Y-72215481D01*
X32930523Y-72206335D01*
X32937331Y-72203796D01*
X33052546Y-72117546D01*
X33138796Y-72002331D01*
X33189091Y-71867483D01*
X33195500Y-71807873D01*
X33195499Y-69712128D01*
X33189462Y-69655965D01*
X33189462Y-69655962D01*
X33189092Y-69652519D01*
X33138797Y-69517671D01*
X33138793Y-69517664D01*
X33052547Y-69402455D01*
X33052544Y-69402452D01*
X32937335Y-69316206D01*
X32937328Y-69316202D01*
X32802482Y-69265908D01*
X32802483Y-69265908D01*
X32742883Y-69259501D01*
X32742881Y-69259500D01*
X32742873Y-69259500D01*
X32742864Y-69259500D01*
X28647129Y-69259500D01*
X28647123Y-69259501D01*
X28587516Y-69265908D01*
X28452671Y-69316202D01*
X28452664Y-69316206D01*
X28337455Y-69402452D01*
X28337452Y-69402455D01*
X28251206Y-69517664D01*
X28251202Y-69517671D01*
X28200908Y-69652517D01*
X28196441Y-69694074D01*
X28194501Y-69712123D01*
X28194500Y-69712135D01*
X26500000Y-69712135D01*
X26500000Y-66760000D01*
X28763422Y-66760000D01*
X28802076Y-66904258D01*
X28902404Y-67146471D01*
X28902409Y-67146482D01*
X29033496Y-67373528D01*
X29193092Y-67581519D01*
X29193098Y-67581526D01*
X29378473Y-67766901D01*
X29378480Y-67766907D01*
X29586471Y-67926503D01*
X29813517Y-68057590D01*
X29813528Y-68057595D01*
X30055732Y-68157920D01*
X30055742Y-68157923D01*
X30200000Y-68196576D01*
X30200000Y-68196575D01*
X31200000Y-68196575D01*
X31344257Y-68157923D01*
X31344267Y-68157920D01*
X31586471Y-68057595D01*
X31586482Y-68057590D01*
X31813528Y-67926503D01*
X32021519Y-67766907D01*
X32021526Y-67766901D01*
X32206901Y-67581526D01*
X32206907Y-67581519D01*
X32366503Y-67373528D01*
X32497590Y-67146482D01*
X32497595Y-67146470D01*
X32506887Y-67124038D01*
X32899500Y-67124038D01*
X32899500Y-67375961D01*
X32938910Y-67624785D01*
X33016760Y-67864383D01*
X33095413Y-68018747D01*
X33115207Y-68057595D01*
X33131132Y-68088848D01*
X33279201Y-68292649D01*
X33279205Y-68292654D01*
X33457345Y-68470794D01*
X33457350Y-68470798D01*
X33635117Y-68599952D01*
X33661155Y-68618870D01*
X33804184Y-68691747D01*
X33885616Y-68733239D01*
X33885618Y-68733239D01*
X33885621Y-68733241D01*
X34125215Y-68811090D01*
X34374038Y-68850500D01*
X34374039Y-68850500D01*
X34625961Y-68850500D01*
X34625962Y-68850500D01*
X34874785Y-68811090D01*
X35114379Y-68733241D01*
X35338845Y-68618870D01*
X35542656Y-68470793D01*
X35720793Y-68292656D01*
X35868870Y-68088845D01*
X35983241Y-67864379D01*
X36061090Y-67624785D01*
X36100500Y-67375962D01*
X36100500Y-67124038D01*
X36061090Y-66875215D01*
X35983241Y-66635621D01*
X35983239Y-66635618D01*
X35983239Y-66635616D01*
X35941747Y-66554184D01*
X35868870Y-66411155D01*
X35789463Y-66301860D01*
X35786212Y-66297385D01*
X35762732Y-66231579D01*
X35778558Y-66163525D01*
X35828663Y-66114830D01*
X35886530Y-66100500D01*
X38196069Y-66100500D01*
X38263108Y-66120185D01*
X38303456Y-66162500D01*
X38333075Y-66213803D01*
X38492718Y-66421851D01*
X38492726Y-66421860D01*
X38678140Y-66607274D01*
X38678148Y-66607281D01*
X38886196Y-66766924D01*
X39113299Y-66898041D01*
X39113309Y-66898046D01*
X39312369Y-66980499D01*
X39355581Y-66998398D01*
X39608884Y-67066270D01*
X39868880Y-67100500D01*
X39868887Y-67100500D01*
X40131113Y-67100500D01*
X40131120Y-67100500D01*
X40391116Y-67066270D01*
X40644419Y-66998398D01*
X40821340Y-66925114D01*
X40886690Y-66898046D01*
X40886691Y-66898045D01*
X40886697Y-66898043D01*
X41113803Y-66766924D01*
X41321851Y-66607282D01*
X41321855Y-66607277D01*
X41321860Y-66607274D01*
X41507274Y-66421860D01*
X41507277Y-66421855D01*
X41507282Y-66421851D01*
X41666924Y-66213803D01*
X41798043Y-65986697D01*
X41898398Y-65744419D01*
X41966270Y-65491116D01*
X42000500Y-65231120D01*
X42000500Y-64968880D01*
X41984700Y-64848872D01*
X47499500Y-64848872D01*
X47499500Y-65111127D01*
X47520206Y-65268393D01*
X47533730Y-65371116D01*
X47565884Y-65491116D01*
X47601602Y-65624418D01*
X47601605Y-65624428D01*
X47701953Y-65866690D01*
X47701958Y-65866700D01*
X47833075Y-66093803D01*
X47992718Y-66301851D01*
X47992726Y-66301860D01*
X48178140Y-66487274D01*
X48178148Y-66487281D01*
X48386196Y-66646924D01*
X48613299Y-66778041D01*
X48613309Y-66778046D01*
X48855571Y-66878394D01*
X48855581Y-66878398D01*
X49108884Y-66946270D01*
X49368880Y-66980500D01*
X49368887Y-66980500D01*
X49631113Y-66980500D01*
X49631120Y-66980500D01*
X49891116Y-66946270D01*
X50144419Y-66878398D01*
X50386697Y-66778043D01*
X50613803Y-66646924D01*
X50821851Y-66487282D01*
X50821855Y-66487277D01*
X50821860Y-66487274D01*
X51007274Y-66301860D01*
X51007277Y-66301855D01*
X51007282Y-66301851D01*
X51166924Y-66093803D01*
X51298043Y-65866697D01*
X51398398Y-65624419D01*
X51466270Y-65371116D01*
X51500500Y-65111120D01*
X51500500Y-64848880D01*
X51466270Y-64588884D01*
X51398398Y-64335581D01*
X51347776Y-64213368D01*
X51298046Y-64093309D01*
X51298041Y-64093299D01*
X51166924Y-63866196D01*
X51007281Y-63658148D01*
X51007274Y-63658140D01*
X50821860Y-63472726D01*
X50821851Y-63472718D01*
X50613803Y-63313075D01*
X50386700Y-63181958D01*
X50386690Y-63181953D01*
X50144428Y-63081605D01*
X50144421Y-63081603D01*
X50144419Y-63081602D01*
X49891116Y-63013730D01*
X49833339Y-63006123D01*
X49631127Y-62979500D01*
X49631120Y-62979500D01*
X49368880Y-62979500D01*
X49368872Y-62979500D01*
X49137772Y-63009926D01*
X49108884Y-63013730D01*
X48855581Y-63081602D01*
X48855571Y-63081605D01*
X48613309Y-63181953D01*
X48613299Y-63181958D01*
X48386196Y-63313075D01*
X48178148Y-63472718D01*
X47992718Y-63658148D01*
X47833075Y-63866196D01*
X47701958Y-64093299D01*
X47701953Y-64093309D01*
X47601605Y-64335571D01*
X47601602Y-64335581D01*
X47571124Y-64449329D01*
X47533730Y-64588885D01*
X47499500Y-64848872D01*
X41984700Y-64848872D01*
X41966270Y-64708884D01*
X41898398Y-64455581D01*
X41859667Y-64362076D01*
X41798046Y-64213309D01*
X41798041Y-64213299D01*
X41666924Y-63986196D01*
X41507281Y-63778148D01*
X41507274Y-63778140D01*
X41321860Y-63592726D01*
X41321851Y-63592718D01*
X41113803Y-63433075D01*
X40886700Y-63301958D01*
X40886690Y-63301953D01*
X40644428Y-63201605D01*
X40644421Y-63201603D01*
X40644419Y-63201602D01*
X40391116Y-63133730D01*
X40333339Y-63126123D01*
X40131127Y-63099500D01*
X40131120Y-63099500D01*
X39868880Y-63099500D01*
X39868872Y-63099500D01*
X39637772Y-63129926D01*
X39608884Y-63133730D01*
X39428894Y-63181958D01*
X39355581Y-63201602D01*
X39355571Y-63201605D01*
X39113309Y-63301953D01*
X39113299Y-63301958D01*
X38886196Y-63433075D01*
X38678148Y-63592718D01*
X38492718Y-63778148D01*
X38333075Y-63986196D01*
X38303456Y-64037500D01*
X38252889Y-64085715D01*
X38196069Y-64099500D01*
X34951456Y-64099500D01*
X34758171Y-64137946D01*
X34758167Y-64137948D01*
X34758165Y-64137948D01*
X34758164Y-64137949D01*
X34682745Y-64169188D01*
X34682743Y-64169189D01*
X34576085Y-64213368D01*
X34576085Y-64213369D01*
X34576084Y-64213369D01*
X34412222Y-64322857D01*
X34412214Y-64322863D01*
X33981987Y-64753092D01*
X33862220Y-64872859D01*
X33862218Y-64872861D01*
X33796606Y-64938473D01*
X33722859Y-65012219D01*
X33613371Y-65176080D01*
X33613364Y-65176093D01*
X33575133Y-65268393D01*
X33575129Y-65268403D01*
X33573708Y-65271835D01*
X33537949Y-65358164D01*
X33531251Y-65391836D01*
X33529598Y-65400143D01*
X33529598Y-65400145D01*
X33499500Y-65551456D01*
X33499500Y-65936037D01*
X33479815Y-66003076D01*
X33460376Y-66025350D01*
X33460788Y-66025762D01*
X33279205Y-66207345D01*
X33279201Y-66207350D01*
X33131132Y-66411151D01*
X33016760Y-66635616D01*
X32938910Y-66875214D01*
X32899500Y-67124038D01*
X32506887Y-67124038D01*
X32528562Y-67071713D01*
X32528562Y-67071711D01*
X32597922Y-66904261D01*
X32636578Y-66760000D01*
X31200000Y-66760000D01*
X31200000Y-68196575D01*
X30200000Y-68196575D01*
X30200000Y-66760000D01*
X28763422Y-66760000D01*
X26500000Y-66760000D01*
X26500000Y-66194174D01*
X30200000Y-66194174D01*
X30200000Y-66325826D01*
X30234075Y-66452993D01*
X30299901Y-66567007D01*
X30392993Y-66660099D01*
X30507007Y-66725925D01*
X30634174Y-66760000D01*
X30765826Y-66760000D01*
X30892993Y-66725925D01*
X31007007Y-66660099D01*
X31100099Y-66567007D01*
X31165925Y-66452993D01*
X31200000Y-66325826D01*
X31200000Y-66194174D01*
X31165925Y-66067007D01*
X31100099Y-65952993D01*
X31007007Y-65859901D01*
X30892993Y-65794075D01*
X30765826Y-65760000D01*
X31200000Y-65760000D01*
X32636578Y-65760000D01*
X32636577Y-65759999D01*
X32597923Y-65615741D01*
X32497595Y-65373528D01*
X32497590Y-65373517D01*
X32366503Y-65146471D01*
X32206907Y-64938480D01*
X32206901Y-64938473D01*
X32021526Y-64753098D01*
X32021519Y-64753092D01*
X31813528Y-64593496D01*
X31586482Y-64462409D01*
X31586471Y-64462404D01*
X31344258Y-64362076D01*
X31200000Y-64323422D01*
X31200000Y-65760000D01*
X30765826Y-65760000D01*
X30634174Y-65760000D01*
X30507007Y-65794075D01*
X30392993Y-65859901D01*
X30299901Y-65952993D01*
X30234075Y-66067007D01*
X30200000Y-66194174D01*
X26500000Y-66194174D01*
X26500000Y-65759999D01*
X28763422Y-65759999D01*
X28763422Y-65760000D01*
X30200000Y-65760000D01*
X30200000Y-64323422D01*
X30199999Y-64323422D01*
X30055741Y-64362076D01*
X29813528Y-64462404D01*
X29813517Y-64462409D01*
X29586471Y-64593496D01*
X29378480Y-64753092D01*
X29378473Y-64753098D01*
X29193098Y-64938473D01*
X29193092Y-64938480D01*
X29033496Y-65146471D01*
X28902409Y-65373517D01*
X28902404Y-65373528D01*
X28802076Y-65615741D01*
X28763422Y-65759999D01*
X26500000Y-65759999D01*
X26500000Y-64449329D01*
X26912390Y-64449329D01*
X28977896Y-64449329D01*
X28977896Y-59868905D01*
X43100000Y-59868905D01*
X43100000Y-60131094D01*
X43134220Y-60391009D01*
X43134222Y-60391020D01*
X43202075Y-60644255D01*
X43302403Y-60886468D01*
X43302407Y-60886477D01*
X43377079Y-61015812D01*
X43377080Y-61015813D01*
X44350000Y-60042893D01*
X44350000Y-60073869D01*
X44378822Y-60218767D01*
X44435359Y-60355258D01*
X44517437Y-60478097D01*
X44621903Y-60582563D01*
X44744742Y-60664641D01*
X44881233Y-60721178D01*
X45026131Y-60750000D01*
X45057106Y-60750000D01*
X44084185Y-61722919D01*
X44084185Y-61722920D01*
X44213517Y-61797590D01*
X44213528Y-61797595D01*
X44455744Y-61897924D01*
X44708979Y-61965777D01*
X44708990Y-61965779D01*
X44968905Y-61999999D01*
X44968920Y-62000000D01*
X45231080Y-62000000D01*
X45231094Y-61999999D01*
X45491009Y-61965779D01*
X45491020Y-61965777D01*
X45744255Y-61897924D01*
X45986471Y-61797595D01*
X45986482Y-61797590D01*
X46115813Y-61722920D01*
X46115813Y-61722919D01*
X45142895Y-60750000D01*
X45173869Y-60750000D01*
X45318767Y-60721178D01*
X45455258Y-60664641D01*
X45578097Y-60582563D01*
X45682563Y-60478097D01*
X45764641Y-60355258D01*
X45821178Y-60218767D01*
X45850000Y-60073869D01*
X45850000Y-60042894D01*
X46822919Y-61015813D01*
X46822920Y-61015813D01*
X46897590Y-60886482D01*
X46897595Y-60886471D01*
X46997924Y-60644255D01*
X47065777Y-60391020D01*
X47065779Y-60391009D01*
X47099999Y-60131094D01*
X47100000Y-60131080D01*
X47100000Y-59868919D01*
X47099999Y-59868905D01*
X47065779Y-59608990D01*
X47065777Y-59608979D01*
X46997924Y-59355744D01*
X46897595Y-59113528D01*
X46897590Y-59113517D01*
X46822919Y-58984185D01*
X45850000Y-59957104D01*
X45850000Y-59926131D01*
X45821178Y-59781233D01*
X45764641Y-59644742D01*
X45682563Y-59521903D01*
X45578097Y-59417437D01*
X45455258Y-59335359D01*
X45318767Y-59278822D01*
X45173869Y-59250000D01*
X45142894Y-59250000D01*
X46115813Y-58277080D01*
X46115812Y-58277079D01*
X45986477Y-58202407D01*
X45986468Y-58202403D01*
X45744255Y-58102075D01*
X45491020Y-58034222D01*
X45491009Y-58034220D01*
X45231094Y-58000000D01*
X44968905Y-58000000D01*
X44708990Y-58034220D01*
X44708979Y-58034222D01*
X44455744Y-58102075D01*
X44213531Y-58202403D01*
X44213526Y-58202405D01*
X44084186Y-58277079D01*
X45057107Y-59250000D01*
X45026131Y-59250000D01*
X44881233Y-59278822D01*
X44744742Y-59335359D01*
X44621903Y-59417437D01*
X44517437Y-59521903D01*
X44435359Y-59644742D01*
X44378822Y-59781233D01*
X44350000Y-59926131D01*
X44350000Y-59957107D01*
X43377079Y-58984186D01*
X43302405Y-59113526D01*
X43302403Y-59113531D01*
X43202075Y-59355744D01*
X43134222Y-59608979D01*
X43134220Y-59608990D01*
X43100000Y-59868905D01*
X28977896Y-59868905D01*
X28977896Y-58051608D01*
X26912390Y-58051608D01*
X26912390Y-64449329D01*
X26500000Y-64449329D01*
X26500000Y-53348872D01*
X28649500Y-53348872D01*
X28649500Y-53611127D01*
X28672550Y-53786196D01*
X28683730Y-53871116D01*
X28751602Y-54124418D01*
X28751605Y-54124428D01*
X28851953Y-54366690D01*
X28851958Y-54366700D01*
X28983075Y-54593803D01*
X29100700Y-54747092D01*
X29125895Y-54812261D01*
X29111857Y-54880706D01*
X29100701Y-54898065D01*
X29033075Y-54986197D01*
X28901958Y-55213299D01*
X28901953Y-55213309D01*
X28801605Y-55455571D01*
X28801602Y-55455581D01*
X28779577Y-55537782D01*
X28733730Y-55708885D01*
X28699500Y-55968872D01*
X28699500Y-56231127D01*
X28712159Y-56327274D01*
X28733730Y-56491116D01*
X28794630Y-56718398D01*
X28801602Y-56744418D01*
X28801605Y-56744428D01*
X28901953Y-56986690D01*
X28901958Y-56986700D01*
X29033075Y-57213803D01*
X29192718Y-57421851D01*
X29192726Y-57421860D01*
X29378140Y-57607274D01*
X29378148Y-57607281D01*
X29586196Y-57766924D01*
X29813299Y-57898041D01*
X29813309Y-57898046D01*
X30055571Y-57998394D01*
X30055581Y-57998398D01*
X30308884Y-58066270D01*
X30568880Y-58100500D01*
X30568887Y-58100500D01*
X30831113Y-58100500D01*
X30831120Y-58100500D01*
X31091116Y-58066270D01*
X31344419Y-57998398D01*
X31586697Y-57898043D01*
X31813803Y-57766924D01*
X32021851Y-57607282D01*
X32021855Y-57607277D01*
X32021860Y-57607274D01*
X32207274Y-57421860D01*
X32207277Y-57421855D01*
X32207282Y-57421851D01*
X32366924Y-57213803D01*
X32498043Y-56986697D01*
X32598398Y-56744419D01*
X32666270Y-56491116D01*
X32700500Y-56231120D01*
X32700500Y-55968880D01*
X32666270Y-55708884D01*
X32598398Y-55455581D01*
X32598394Y-55455571D01*
X32498046Y-55213309D01*
X32498041Y-55213299D01*
X32366927Y-54986201D01*
X32366924Y-54986197D01*
X32249300Y-54832907D01*
X32224542Y-54768872D01*
X37999500Y-54768872D01*
X37999500Y-55031127D01*
X38023485Y-55213299D01*
X38033730Y-55291116D01*
X38080169Y-55464428D01*
X38101602Y-55544418D01*
X38101605Y-55544428D01*
X38201953Y-55786690D01*
X38201958Y-55786700D01*
X38333075Y-56013803D01*
X38492718Y-56221851D01*
X38492726Y-56221860D01*
X38678140Y-56407274D01*
X38678148Y-56407281D01*
X38886196Y-56566924D01*
X39113299Y-56698041D01*
X39113309Y-56698046D01*
X39326299Y-56786269D01*
X39355581Y-56798398D01*
X39608884Y-56866270D01*
X39868880Y-56900500D01*
X39868887Y-56900500D01*
X40131113Y-56900500D01*
X40131120Y-56900500D01*
X40391116Y-56866270D01*
X40644419Y-56798398D01*
X40886697Y-56698043D01*
X41113803Y-56566924D01*
X41321851Y-56407282D01*
X41321855Y-56407277D01*
X41321860Y-56407274D01*
X41507274Y-56221860D01*
X41507277Y-56221855D01*
X41507282Y-56221851D01*
X41666924Y-56013803D01*
X41696544Y-55962500D01*
X41747111Y-55914285D01*
X41803931Y-55900500D01*
X44398542Y-55900500D01*
X44429566Y-55894328D01*
X44495188Y-55881275D01*
X44591836Y-55862051D01*
X44645165Y-55839961D01*
X44773914Y-55786632D01*
X44937782Y-55677139D01*
X45077139Y-55537782D01*
X45077139Y-55537780D01*
X45087347Y-55527573D01*
X45087349Y-55527570D01*
X45878100Y-54736819D01*
X45939423Y-54703334D01*
X45965781Y-54700500D01*
X46172026Y-54700500D01*
X46172027Y-54700500D01*
X46245442Y-54688872D01*
X47499500Y-54688872D01*
X47499500Y-54951127D01*
X47510032Y-55031120D01*
X47533730Y-55211116D01*
X47555166Y-55291116D01*
X47601602Y-55464418D01*
X47601605Y-55464428D01*
X47701953Y-55706690D01*
X47701958Y-55706700D01*
X47833075Y-55933803D01*
X47992718Y-56141851D01*
X47992726Y-56141860D01*
X48178140Y-56327274D01*
X48178148Y-56327281D01*
X48386196Y-56486924D01*
X48613299Y-56618041D01*
X48613309Y-56618046D01*
X48855571Y-56718394D01*
X48855581Y-56718398D01*
X49108884Y-56786270D01*
X49368880Y-56820500D01*
X49368887Y-56820500D01*
X49631113Y-56820500D01*
X49631120Y-56820500D01*
X49891116Y-56786270D01*
X50144419Y-56718398D01*
X50386697Y-56618043D01*
X50613803Y-56486924D01*
X50821851Y-56327282D01*
X50821855Y-56327277D01*
X50821860Y-56327274D01*
X51007274Y-56141860D01*
X51007277Y-56141855D01*
X51007282Y-56141851D01*
X51166924Y-55933803D01*
X51298043Y-55706697D01*
X51398398Y-55464419D01*
X51466270Y-55211116D01*
X51500500Y-54951120D01*
X51500500Y-54688880D01*
X51466270Y-54428884D01*
X51398398Y-54175581D01*
X51331183Y-54013309D01*
X51298046Y-53933309D01*
X51298041Y-53933299D01*
X51166924Y-53706196D01*
X51007281Y-53498148D01*
X51007274Y-53498140D01*
X50821860Y-53312726D01*
X50821851Y-53312718D01*
X50613803Y-53153075D01*
X50386700Y-53021958D01*
X50386690Y-53021953D01*
X50144428Y-52921605D01*
X50144421Y-52921603D01*
X50144419Y-52921602D01*
X49891116Y-52853730D01*
X49833339Y-52846123D01*
X49631127Y-52819500D01*
X49631120Y-52819500D01*
X49368880Y-52819500D01*
X49368872Y-52819500D01*
X49137772Y-52849926D01*
X49108884Y-52853730D01*
X48855581Y-52921602D01*
X48855571Y-52921605D01*
X48613309Y-53021953D01*
X48613299Y-53021958D01*
X48386196Y-53153075D01*
X48178148Y-53312718D01*
X47992718Y-53498148D01*
X47833075Y-53706196D01*
X47701958Y-53933299D01*
X47701953Y-53933309D01*
X47601605Y-54175571D01*
X47601602Y-54175581D01*
X47559515Y-54332655D01*
X47533730Y-54428885D01*
X47499500Y-54688872D01*
X46245442Y-54688872D01*
X46413076Y-54662321D01*
X46645185Y-54586904D01*
X46862639Y-54476106D01*
X47060083Y-54332655D01*
X47232655Y-54160083D01*
X47376106Y-53962639D01*
X47486904Y-53745185D01*
X47562321Y-53513076D01*
X47600500Y-53272027D01*
X47600500Y-53027973D01*
X47562321Y-52786924D01*
X47486904Y-52554815D01*
X47376106Y-52337361D01*
X47357779Y-52312136D01*
X47232660Y-52139923D01*
X47232656Y-52139918D01*
X47060081Y-51967343D01*
X47060076Y-51967339D01*
X46862642Y-51823896D01*
X46862641Y-51823895D01*
X46862639Y-51823894D01*
X46861098Y-51823109D01*
X47927134Y-51823109D01*
X50341742Y-51823109D01*
X50341742Y-44075952D01*
X47927134Y-44075952D01*
X47927134Y-51823109D01*
X46861098Y-51823109D01*
X46645185Y-51713096D01*
X46413076Y-51637679D01*
X46413074Y-51637678D01*
X46413072Y-51637678D01*
X46244769Y-51611021D01*
X46172027Y-51599500D01*
X45927973Y-51599500D01*
X45872093Y-51608350D01*
X45686927Y-51637678D01*
X45454812Y-51713097D01*
X45237357Y-51823896D01*
X45039923Y-51967339D01*
X45039918Y-51967343D01*
X44867343Y-52139918D01*
X44867339Y-52139923D01*
X44723896Y-52337357D01*
X44613097Y-52554812D01*
X44537678Y-52786927D01*
X44499500Y-53027973D01*
X44499500Y-53234217D01*
X44479815Y-53301256D01*
X44463181Y-53321898D01*
X43921899Y-53863181D01*
X43860576Y-53896666D01*
X43834218Y-53899500D01*
X41803931Y-53899500D01*
X41736892Y-53879815D01*
X41696544Y-53837500D01*
X41666924Y-53786196D01*
X41507281Y-53578148D01*
X41507274Y-53578140D01*
X41321860Y-53392726D01*
X41321851Y-53392718D01*
X41113803Y-53233075D01*
X40886700Y-53101958D01*
X40886690Y-53101953D01*
X40644428Y-53001605D01*
X40644421Y-53001603D01*
X40644419Y-53001602D01*
X40391116Y-52933730D01*
X40333339Y-52926123D01*
X40131127Y-52899500D01*
X40131120Y-52899500D01*
X39868880Y-52899500D01*
X39868872Y-52899500D01*
X39637772Y-52929926D01*
X39608884Y-52933730D01*
X39355581Y-53001602D01*
X39355571Y-53001605D01*
X39113309Y-53101953D01*
X39113299Y-53101958D01*
X38886196Y-53233075D01*
X38678148Y-53392718D01*
X38492718Y-53578148D01*
X38333075Y-53786196D01*
X38201958Y-54013299D01*
X38201953Y-54013309D01*
X38101605Y-54255571D01*
X38101602Y-54255581D01*
X38033730Y-54508885D01*
X37999500Y-54768872D01*
X32224542Y-54768872D01*
X32224104Y-54767739D01*
X32238141Y-54699294D01*
X32249294Y-54681938D01*
X32316924Y-54593803D01*
X32448043Y-54366697D01*
X32548398Y-54124419D01*
X32616270Y-53871116D01*
X32650500Y-53611120D01*
X32650500Y-53348880D01*
X32616270Y-53088884D01*
X32548398Y-52835581D01*
X32528244Y-52786924D01*
X32448046Y-52593309D01*
X32448041Y-52593299D01*
X32316924Y-52366196D01*
X32157281Y-52158148D01*
X32157274Y-52158140D01*
X31971860Y-51972726D01*
X31971851Y-51972718D01*
X31763803Y-51813075D01*
X31536700Y-51681958D01*
X31536690Y-51681953D01*
X31294428Y-51581605D01*
X31294421Y-51581603D01*
X31294419Y-51581602D01*
X31041116Y-51513730D01*
X30983339Y-51506123D01*
X30781127Y-51479500D01*
X30781120Y-51479500D01*
X30518880Y-51479500D01*
X30518872Y-51479500D01*
X30287772Y-51509926D01*
X30258884Y-51513730D01*
X30005581Y-51581602D01*
X30005571Y-51581605D01*
X29763309Y-51681953D01*
X29763299Y-51681958D01*
X29536196Y-51813075D01*
X29328148Y-51972718D01*
X29142718Y-52158148D01*
X28983075Y-52366196D01*
X28851958Y-52593299D01*
X28851953Y-52593309D01*
X28751605Y-52835571D01*
X28751602Y-52835581D01*
X28683730Y-53088885D01*
X28649500Y-53348872D01*
X26500000Y-53348872D01*
X26500000Y-50674371D01*
X26862390Y-50674371D01*
X28926959Y-50674371D01*
X28926959Y-46026608D01*
X26862390Y-46026608D01*
X26862390Y-50674371D01*
X26500000Y-50674371D01*
X26500000Y-43188872D01*
X28649500Y-43188872D01*
X28649500Y-43451127D01*
X28676123Y-43653339D01*
X28683730Y-43711116D01*
X28751602Y-43964418D01*
X28751605Y-43964428D01*
X28851953Y-44206690D01*
X28851958Y-44206700D01*
X28983075Y-44433803D01*
X29142718Y-44641851D01*
X29142726Y-44641860D01*
X29328140Y-44827274D01*
X29328148Y-44827281D01*
X29536196Y-44986924D01*
X29763299Y-45118041D01*
X29763309Y-45118046D01*
X30005571Y-45218394D01*
X30005581Y-45218398D01*
X30258884Y-45286270D01*
X30518880Y-45320500D01*
X30518887Y-45320500D01*
X30781113Y-45320500D01*
X30781120Y-45320500D01*
X31041116Y-45286270D01*
X31294419Y-45218398D01*
X31459587Y-45149983D01*
X35499500Y-45149983D01*
X35499500Y-47350001D01*
X35499501Y-47350018D01*
X35510000Y-47452796D01*
X35510001Y-47452799D01*
X35565185Y-47619331D01*
X35565186Y-47619334D01*
X35657288Y-47768656D01*
X35781344Y-47892712D01*
X35930666Y-47984814D01*
X36097203Y-48039999D01*
X36199991Y-48050500D01*
X38400008Y-48050499D01*
X38502797Y-48039999D01*
X38669334Y-47984814D01*
X38688619Y-47972919D01*
X41364185Y-47972919D01*
X41364185Y-47972920D01*
X41493517Y-48047590D01*
X41493528Y-48047595D01*
X41735744Y-48147924D01*
X41988979Y-48215777D01*
X41988990Y-48215779D01*
X42248905Y-48249999D01*
X42248920Y-48250000D01*
X42511080Y-48250000D01*
X42511094Y-48249999D01*
X42771009Y-48215779D01*
X42771020Y-48215777D01*
X43024255Y-48147924D01*
X43266471Y-48047595D01*
X43266482Y-48047590D01*
X43395813Y-47972920D01*
X43395813Y-47972919D01*
X42380001Y-46957106D01*
X42380000Y-46957106D01*
X41364185Y-47972919D01*
X38688619Y-47972919D01*
X38818656Y-47892712D01*
X38942712Y-47768656D01*
X39034814Y-47619334D01*
X39089999Y-47452797D01*
X39100500Y-47350009D01*
X39100499Y-46118905D01*
X40380000Y-46118905D01*
X40380000Y-46381094D01*
X40414220Y-46641009D01*
X40414222Y-46641020D01*
X40482075Y-46894255D01*
X40582403Y-47136468D01*
X40582407Y-47136477D01*
X40657079Y-47265812D01*
X40657080Y-47265813D01*
X41672893Y-46250000D01*
X41608874Y-46185981D01*
X41730000Y-46185981D01*
X41730000Y-46314019D01*
X41754979Y-46439598D01*
X41803978Y-46557890D01*
X41875112Y-46664351D01*
X41965649Y-46754888D01*
X42072110Y-46826022D01*
X42190402Y-46875021D01*
X42315981Y-46900000D01*
X42444019Y-46900000D01*
X42569598Y-46875021D01*
X42687890Y-46826022D01*
X42794351Y-46754888D01*
X42884888Y-46664351D01*
X42956022Y-46557890D01*
X43005021Y-46439598D01*
X43030000Y-46314019D01*
X43030000Y-46249999D01*
X43087106Y-46249999D01*
X43087106Y-46250000D01*
X44102919Y-47265813D01*
X44102920Y-47265813D01*
X44177590Y-47136482D01*
X44177595Y-47136471D01*
X44277924Y-46894255D01*
X44345777Y-46641020D01*
X44345779Y-46641009D01*
X44379999Y-46381094D01*
X44380000Y-46381080D01*
X44380000Y-46118919D01*
X44379999Y-46118905D01*
X44345779Y-45858990D01*
X44345777Y-45858979D01*
X44277924Y-45605744D01*
X44177595Y-45363528D01*
X44177590Y-45363517D01*
X44102919Y-45234185D01*
X43087106Y-46249999D01*
X43030000Y-46249999D01*
X43030000Y-46185981D01*
X43005021Y-46060402D01*
X42956022Y-45942110D01*
X42884888Y-45835649D01*
X42794351Y-45745112D01*
X42687890Y-45673978D01*
X42569598Y-45624979D01*
X42444019Y-45600000D01*
X42315981Y-45600000D01*
X42190402Y-45624979D01*
X42072110Y-45673978D01*
X41965649Y-45745112D01*
X41875112Y-45835649D01*
X41803978Y-45942110D01*
X41754979Y-46060402D01*
X41730000Y-46185981D01*
X41608874Y-46185981D01*
X40657079Y-45234186D01*
X40582405Y-45363526D01*
X40582403Y-45363531D01*
X40482075Y-45605744D01*
X40414222Y-45858979D01*
X40414220Y-45858990D01*
X40380000Y-46118905D01*
X39100499Y-46118905D01*
X39100499Y-45149992D01*
X39089999Y-45047203D01*
X39034814Y-44880666D01*
X38942712Y-44731344D01*
X38818656Y-44607288D01*
X38725888Y-44550069D01*
X38688616Y-44527079D01*
X41364186Y-44527079D01*
X42380000Y-45542893D01*
X42380001Y-45542893D01*
X43395813Y-44527080D01*
X43395812Y-44527079D01*
X43266477Y-44452407D01*
X43266468Y-44452403D01*
X43024255Y-44352075D01*
X42771020Y-44284222D01*
X42771009Y-44284220D01*
X42511094Y-44250000D01*
X42248905Y-44250000D01*
X41988990Y-44284220D01*
X41988979Y-44284222D01*
X41735744Y-44352075D01*
X41493531Y-44452403D01*
X41493526Y-44452405D01*
X41364186Y-44527079D01*
X38688616Y-44527079D01*
X38669336Y-44515187D01*
X38669331Y-44515185D01*
X38667862Y-44514698D01*
X38502797Y-44460001D01*
X38502795Y-44460000D01*
X38400010Y-44449500D01*
X36199998Y-44449500D01*
X36199981Y-44449501D01*
X36097203Y-44460000D01*
X36097200Y-44460001D01*
X35930668Y-44515185D01*
X35930663Y-44515187D01*
X35781342Y-44607289D01*
X35657289Y-44731342D01*
X35565187Y-44880663D01*
X35565186Y-44880666D01*
X35510001Y-45047203D01*
X35510001Y-45047204D01*
X35510000Y-45047204D01*
X35499500Y-45149983D01*
X31459587Y-45149983D01*
X31536697Y-45118043D01*
X31763798Y-44986927D01*
X31763802Y-44986925D01*
X31803071Y-44956792D01*
X31971851Y-44827282D01*
X31971855Y-44827277D01*
X31971860Y-44827274D01*
X32157274Y-44641860D01*
X32157277Y-44641855D01*
X32157282Y-44641851D01*
X32316924Y-44433803D01*
X32448043Y-44206697D01*
X32548398Y-43964419D01*
X32616270Y-43711116D01*
X32650500Y-43451120D01*
X32650500Y-43449571D01*
X45950137Y-43449571D01*
X50460137Y-43449571D01*
X50460137Y-41415761D01*
X45950137Y-41415761D01*
X45950137Y-43449571D01*
X32650500Y-43449571D01*
X32650500Y-43188880D01*
X32616270Y-42928884D01*
X32548398Y-42675581D01*
X32548394Y-42675571D01*
X32448046Y-42433309D01*
X32448041Y-42433299D01*
X32316924Y-42206196D01*
X32157281Y-41998148D01*
X32157274Y-41998140D01*
X31971860Y-41812726D01*
X31971851Y-41812718D01*
X31763803Y-41653075D01*
X31536700Y-41521958D01*
X31536690Y-41521953D01*
X31432894Y-41478960D01*
X31294428Y-41421605D01*
X31294421Y-41421603D01*
X31294419Y-41421602D01*
X31041116Y-41353730D01*
X30983339Y-41346123D01*
X30781127Y-41319500D01*
X30781120Y-41319500D01*
X30518880Y-41319500D01*
X30518872Y-41319500D01*
X30287772Y-41349926D01*
X30258884Y-41353730D01*
X30027380Y-41415761D01*
X30005581Y-41421602D01*
X30005571Y-41421605D01*
X29763309Y-41521953D01*
X29763299Y-41521958D01*
X29536196Y-41653075D01*
X29328148Y-41812718D01*
X29142718Y-41998148D01*
X28983075Y-42206196D01*
X28851958Y-42433299D01*
X28851953Y-42433309D01*
X28751605Y-42675571D01*
X28751602Y-42675581D01*
X28683730Y-42928885D01*
X28649500Y-43188872D01*
X26500000Y-43188872D01*
X26500000Y-41024000D01*
X26519685Y-40956961D01*
X26572489Y-40911206D01*
X26624000Y-40900000D01*
X52176000Y-40900000D01*
X52243039Y-40919685D01*
G37*
%TD.AperFunction*%
%TD*%
M02*
