M48
; DRILL file KiCad 10.0.1 date 2026-05-11T11:19:56
; FORMAT={-:-/ absolute / metric / decimal}
; #@! TF.CreationDate,2026-05-11T11:19:56+01:00
; #@! TF.GenerationSoftware,Kicad,Pcbnew,10.0.1
; #@! TF.FileFunction,Plated,1,2,PTH
FMAT,2
METRIC
; #@! TA.AperFunction,Plated,PTH,ComponentDrill
T1C0.800
; #@! TA.AperFunction,Plated,PTH,ComponentDrill
T2C0.950
; #@! TA.AperFunction,Plated,PTH,ViaDrill
T3C1.000
; #@! TA.AperFunction,Plated,PTH,ComponentDrill
T4C1.000
%
G90
G05
T1
X126.42Y-64.5
X133.0Y-78.42
X133.0Y-88.58
X134.19Y-67.69
X134.19Y-70.23
X134.19Y-72.77
X134.19Y-75.31
X136.0Y-78.42
X136.0Y-88.58
X136.58Y-64.5
X141.81Y-67.69
X141.81Y-70.23
X141.81Y-72.77
X141.81Y-75.31
X144.92Y-69.0
X145.0Y-72.0
X145.0Y-82.16
X155.08Y-69.0
T2
X129.032Y-78.5
X129.032Y-81.0
X129.032Y-83.5
X161.0Y-76.0
X161.0Y-78.5
X161.0Y-81.0
X161.0Y-83.5
X161.0Y-86.0
T3
X131.0Y-70.5
T4
X123.45Y-70.5
X126.0Y-67.95
X128.55Y-70.5
X129.5Y-60.0
X134.5Y-60.0
X140.5Y-80.5
X140.5Y-85.5
X141.0Y-63.0
X146.0Y-63.0
X150.5Y-74.0
X150.5Y-79.0
X150.5Y-85.0
X155.5Y-85.0
X156.0Y-74.0
X156.0Y-79.0
M30
