M48
; DRILL file KiCad 10.0.1 date 2026-04-30T15:28:14
; FORMAT={-:-/ absolute / metric / decimal}
; #@! TF.CreationDate,2026-04-30T15:28:14+01:00
; #@! TF.GenerationSoftware,Kicad,Pcbnew,10.0.1
; #@! TF.FileFunction,Plated,1,2,PTH
FMAT,2
METRIC
; #@! TA.AperFunction,Plated,PTH,ComponentDrill
T1C0.800
; #@! TA.AperFunction,Plated,PTH,ComponentDrill
T2C1.000
; #@! TA.AperFunction,Plated,PTH,ComponentDrill
T3C1.190
; #@! TA.AperFunction,Plated,PTH,ComponentDrill
T4C1.500
%
G90
G05
T1
X125.92Y-76.0
X126.19Y-79.69
X126.19Y-82.23
X126.19Y-84.77
X126.19Y-87.31
X133.81Y-79.69
X133.81Y-82.23
X133.81Y-84.77
X133.81Y-87.31
X136.08Y-76.0
T2
X126.0Y-71.5
X131.0Y-71.5
X139.0Y-81.0
X139.0Y-86.0
T3
X104.225Y-71.5
X106.765Y-71.5
X151.0Y-81.0
X151.0Y-83.54
T4
X111.9Y-82.1
X117.0Y-87.2
X122.1Y-82.1
M30
