M48
; DRILL file KiCad 10.0.1 date 2026-05-08T11:57:50
; FORMAT={-:-/ absolute / metric / decimal}
; #@! TF.CreationDate,2026-05-08T11:57:50+01:00
; #@! TF.GenerationSoftware,Kicad,Pcbnew,10.0.1
; #@! TF.FileFunction,Plated,1,2,PTH
FMAT,2
METRIC
; #@! TA.AperFunction,Plated,PTH,ComponentDrill
T1C0.950
; #@! TA.AperFunction,Plated,PTH,ViaDrill
T2C1.000
; #@! TA.AperFunction,Plated,PTH,ComponentDrill
T3C1.000
; #@! TA.AperFunction,Plated,PTH,ComponentDrill
T4C1.200
%
G90
G05
T1
X152.0Y-102.468
X154.5Y-102.468
X157.0Y-102.468
X159.5Y-102.468
X162.0Y-102.468
T2
X135.7Y-62.9
X158.7Y-79.9
T3
X127.2Y-57.69
X127.2Y-60.23
X127.2Y-62.77
X127.2Y-65.31
X127.2Y-67.85
X127.2Y-70.39
X127.2Y-72.93
X127.2Y-75.47
X127.2Y-78.01
X127.2Y-80.55
X127.2Y-83.09
X127.2Y-85.63
X127.2Y-88.17
X127.2Y-90.71
X127.2Y-93.25
X127.2Y-95.79
X127.2Y-98.33
X127.2Y-100.87
X127.2Y-103.41
X127.2Y-105.95
X144.98Y-57.69
X144.98Y-60.23
X144.98Y-62.77
X144.98Y-65.31
X144.98Y-67.85
X144.98Y-70.39
X144.98Y-72.93
X144.98Y-75.47
X144.98Y-78.01
X144.98Y-80.55
X144.98Y-83.09
X144.98Y-85.63
X144.98Y-88.17
X144.98Y-90.71
X144.98Y-93.25
X144.98Y-95.79
X144.98Y-98.33
X144.98Y-100.87
X144.98Y-103.41
X144.98Y-105.95
X149.38Y-62.0
X149.425Y-57.5
X149.9Y-67.74
X149.9Y-77.9
X152.66Y-65.02
X154.11Y-68.36
X154.11Y-78.52
X154.5Y-86.5
X154.5Y-96.5
X157.0Y-62.0
X159.425Y-57.5
X162.82Y-65.02
T4
X160.0Y-83.0
X160.0Y-95.7
M30
