M48
; DRILL file KiCad 10.0.1 date 2026-05-15T00:10:55
; FORMAT={-:-/ absolute / metric / decimal}
; #@! TF.CreationDate,2026-05-15T00:10:55+01:00
; #@! TF.GenerationSoftware,Kicad,Pcbnew,10.0.1
; #@! TF.FileFunction,MixedPlating,1,2
FMAT,2
METRIC
; #@! TA.AperFunction,Plated,PTH,ComponentDrill
T1C0.800
; #@! TA.AperFunction,Plated,PTH,ViaDrill
T2C1.000
; #@! TA.AperFunction,Plated,PTH,ComponentDrill
T3C1.000
; #@! TA.AperFunction,Plated,PTH,ComponentDrill
T4C1.100
%
G90
G05
T1
X179.6Y-57.4
X184.6Y-57.4
T2
X182.5Y-70.0
X201.0Y-60.5
T3
X171.1Y-42.202
X171.1Y-44.742
X171.1Y-47.282
X171.1Y-49.822
X171.1Y-52.362
X171.1Y-54.902
X171.1Y-57.442
X171.1Y-59.982
X171.1Y-62.522
X171.1Y-65.062
X171.1Y-67.602
X171.1Y-70.142
X171.1Y-72.682
X171.1Y-75.222
X171.1Y-77.762
X171.1Y-80.302
X171.1Y-82.842
X171.1Y-85.382
X171.1Y-87.922
X171.1Y-90.462
X176.99Y-53.3
X184.61Y-53.3
X188.88Y-42.202
X188.88Y-44.742
X188.88Y-47.282
X188.88Y-49.822
X188.88Y-52.362
X188.88Y-54.902
X188.88Y-57.442
X188.88Y-59.982
X188.88Y-62.522
X188.88Y-65.062
X188.88Y-67.602
X188.88Y-70.142
X188.88Y-72.682
X188.88Y-75.222
X188.88Y-77.762
X188.88Y-80.302
X188.88Y-82.842
X188.88Y-85.382
X188.88Y-87.922
X188.88Y-90.462
X195.0Y-42.19
X195.0Y-49.81
X196.3Y-85.7
X198.8Y-85.7
X199.69Y-52.0
X199.69Y-56.5
X201.3Y-85.7
X203.8Y-85.7
X206.3Y-85.7
X207.31Y-52.0
X207.31Y-56.5
T4
X200.96Y-66.95
X203.5Y-66.95
X206.04Y-66.95
M30
